/* XPM */
static char *bbe84fad70e44a458532450db996be39xUjmB8ZFaTf5VMOX[] = {
/* columns rows colors chars-per-pixel */
"64 64 242 2 ",
"   c None",
".  c #0F0406",
"X  c #3A0F14",
"o  c #2F1D25",
"O  c #3E292E",
"+  c #48150C",
"@  c #55180C",
"#  c #470818",
"$  c #560A1B",
"%  c #5C091E",
"&  c #481719",
"*  c #541415",
"=  c #66180D",
"-  c #7B1A0E",
";  c #681716",
":  c #771918",
">  c #522618",
",  c #78210E",
"<  c #6A2414",
"1  c #763015",
"2  c #4A0525",
"3  c #590825",
"4  c #5B1C22",
"5  c #660B28",
"6  c #770C28",
"7  c #761226",
"8  c #6A162B",
"9  c #733030",
"0  c #453631",
"q  c #754B35",
"w  c #764853",
"e  c #7B4947",
"r  c #7B6360",
"t  c #574849",
"y  c #891E0F",
"u  c #841F16",
"i  c #9B1D0F",
"p  c #87220F",
"a  c #862618",
"s  c #942312",
"d  c #992917",
"f  c #92351D",
"g  c #922912",
"h  c #A92714",
"j  c #B82814",
"k  c #A93817",
"l  c #B93916",
"z  c #830D2D",
"x  c #890D33",
"c  c #9B1834",
"v  c #8E1B3A",
"b  c #A5173D",
"n  c #8D3B27",
"m  c #93372B",
"M  c #A63627",
"N  c #B93C25",
"B  c #A73D34",
"V  c #BA2728",
"C  c #C22B14",
"Z  c #CA2C15",
"A  c #C42714",
"S  c #D62D1B",
"D  c #D72E17",
"F  c #CC3316",
"G  c #C93717",
"H  c #D33416",
"J  c #DC3416",
"K  c #D53B16",
"L  c #DC3A16",
"P  c #D8381A",
"I  c #E23617",
"U  c #E23C17",
"Y  c #E43C19",
"T  c #EA3D1A",
"R  c #E8341B",
"E  c #F33C1D",
"W  c #C83B29",
"Q  c #EC3727",
"!  c #95411E",
"~  c #B84819",
"^  c #BC561D",
"/  c #8D442D",
"(  c #924F32",
")  c #AA4727",
"_  c #B44428",
"`  c #A45125",
"'  c #A74A39",
"]  c #B95535",
"[  c #AF572B",
"{  c #B86638",
"}  c #B67836",
"|  c #C54518",
" . c #D5441C",
".. c #D44A1C",
"X. c #DA4719",
"o. c #C9521A",
"O. c #D85619",
"+. c #E4431A",
"@. c #EB4319",
"#. c #E44D1B",
"$. c #ED4A1A",
"%. c #E94317",
"&. c #F14C1B",
"*. c #F2471B",
"=. c #E9551A",
"-. c #F2541B",
";. c #F45C1C",
":. c #D76C19",
">. c #EB6519",
",. c #F4631C",
"<. c #F36A1C",
"1. c #F06F16",
"2. c #EB7717",
"3. c #F6761C",
"4. c #CE4F25",
"5. c #D34B27",
"6. c #CA5D27",
"7. c #D65628",
"8. c #DC5734",
"9. c #D74A3C",
"0. c #EF4922",
"q. c #E35323",
"w. c #E95928",
"e. c #F35824",
"r. c #DA6529",
"t. c #D56337",
"y. c #DB7933",
"u. c #CA732F",
"i. c #EC6324",
"p. c #EA6827",
"a. c #F46424",
"s. c #F56C2C",
"d. c #F66627",
"f. c #EB7726",
"g. c #F77429",
"h. c #E76832",
"j. c #E9713A",
"k. c #F67A35",
"l. c #F26E34",
"z. c #8B2D47",
"x. c #BB3257",
"c. c #C63742",
"v. c #A15849",
"b. c #B65B44",
"n. c #A85D51",
"m. c #B45F55",
"M. c #8D6849",
"N. c #8F625C",
"B. c #A46757",
"V. c #B76656",
"C. c #A5714D",
"Z. c #945C61",
"A. c #B1516E",
"S. c #947B69",
"D. c #B8786B",
"F. c #A87A71",
"G. c #B6746D",
"H. c #D3544D",
"J. c #E35A4A",
"K. c #D27250",
"L. c #E87549",
"P. c #F47E43",
"I. c #EA7958",
"U. c #E56A4A",
"Y. c #D85661",
"T. c #E14775",
"R. c #D27865",
"E. c #D47870",
"W. c #E67B6E",
"Q. c #CB841A",
"!. c #EF8517",
"~. c #F38B1C",
"^. c #F1A711",
"/. c #DA8332",
"(. c #EB8628",
"). c #F58326",
"_. c #E68639",
"`. c #F58B3C",
"'. c #F69738",
"]. c #E6982E",
"[. c #F1AA2F",
"{. c #9F837F",
"}. c #BA8A7C",
"|. c #D98856",
" X c #C88953",
".X c #F68540",
"XX c #F69647",
"oX c #E9855A",
"OX c #F89955",
"+X c #EB8F54",
"@X c #F6A658",
"#X c #EDAF4D",
"$X c #CB8368",
"%X c #DA8464",
"&X c #DF9567",
"*X c #CB8979",
"=X c #D78976",
"-X c #DB9677",
";X c #ED8666",
":X c #E89878",
">X c #EC956C",
",X c #DEAC77",
"<X c #F5A669",
"1X c #F7B579",
"2X c #E8AC73",
"3X c #F1CD6B",
"4X c #B37984",
"5X c #BE8C82",
"6X c #B09492",
"7X c #BEB6B6",
"8X c #D69A85",
"9X c #CE9094",
"0X c #E99E85",
"qX c #F09A83",
"wX c #E59D94",
"eX c #D9A088",
"rX c #C6A79A",
"tX c #D5A799",
"yX c #D1B19F",
"uX c #E8A787",
"iX c #F5B889",
"pX c #E6AD97",
"aX c #E8BA8D",
"sX c #CEB6AB",
"dX c #D2ADAC",
"fX c #F2B9A6",
"gX c #EAB3B3",
"hX c #F3D48F",
"jX c #EBC8AD",
"kX c #ECC9B5",
"lX c #F3C7B8",
"zX c #F2D4BB",
"xX c #F5D3AE",
"cX c #F0EA8F",
"vX c #E8B6C6",
"bX c #DECACB",
"nX c #DFD6C4",
"mX c #EAD9DA",
"MX c #EBD7CE",
"NX c #FAF5F4",
"BX c #F0EAE9",
"VX c #F9ECDA",
/* pixels */
"                                                                                                                                ",
"                                                                                                                                ",
"                                                                                                                                ",
"                                                                                                                                ",
"                                                                                                                                ",
"                                                                                                                                ",
"                                                                                                                                ",
"                                                                                                                                ",
"                                                                                                                                ",
"                                                                                                                                ",
"                                                                                                                                ",
"                                                                                                                                ",
"                                                                                                                                ",
"                                                                                R.H.K.jX                                        ",
"                                                                        eXV.B c c x.mX                                          ",
"                                                                    yX' 7 6 7 6 v bX8XY.T.    ;Xk.xX      fX                    ",
"                                                              tXB./ < # # $ 3 8 6XV.c x.    >XU.        ;XhX                    ",
"                                                        eX  V.|.+X XC.C.M.e w S.[ ; x gX    I.gX      fXd.                      ",
"                                                  pX$XeX  B.f.{ ( /.[.'.XXnXv./.q # z.    ;XfX        j.W.                      ",
"                                            -X7.) ' jX  6Xu.M.{ '.#XXX,X7X' `.'.#Xu.dX  lX          I.9.                        ",
"                                          &XW b 4X    }./.( r.a.`.@X&XN.U.@X#X`.'.1X            pXL.c.        :XxX              ",
"                                          pX        b.g.M.6.g.k.XXpXr oX1X@X.X`.'.VX      fXK.o.N b         8.T.                ",
"                                                $Xi.s.[ ` 3.XX.XrX6X$XhX1XOX`.'.XX      K.g ; 7 z A.      4.V 9X                ",
"                                            E.q.-.;.p.1 a.).&XsX}.-XiX1XOXXXs.6.[     t.} 9 $ 5 z 9X    :Xf S                   ",
"                            uXuX      *Xn / k $.*.T 1 t.uXsXG.t.1X1XXXk.h.( O / K.  rXg.~.].X * z       0.R =X                  ",
"                            Y.      V.a 8 ] G 0.I.*X}.D.] ..e.OXP.w.=.f t S.+Xk.g.  n.g.<.~.( # 6   R.Q Q qX                    ",
"                                8Xc z 3 9 7.D.N.f k G &.e.a.g.g.d.) 0 {.<X.Xg.e.l.  _ g.,.3.u.# 9 9X8.W.      oX,X              ",
"                              V.v 6 : M K.F._ H +.= Y Y +.$.e...4 e |.g.d.d.=.*.I.7X..<.;.,.).& B 8.        r.l.                ",
"                              dXrX*XD.8Xn.X.g U  .p I T &.%.d > 6.k.a.a.X.U %.0.  ] *.-.-.;.3.> 9         |.L.                  ",
"                            uXw.s - - s _ H p = , j Z D k + f =.e.-.@.L I I $.qX6X#.$.@.&.-.<.)           8.                    ",
"                          eXk * ..G P M _ j h , . = = + < ..&.$.@.P L I U &.U.  | +.%.L @.$.<.9         =XY.                    ",
"                          q.$ 2 n X 7.d.~ G i C @ G H l j A T I H C Z J $.0.  ] L C L H %.$.4.b.    wXj.=X                      ",
"                        7.v 2 2 & 1 f.0.w., d U h I J C G X.I A h Z J T *.;X}.K Z j +.I H a `       :X                          ",
"                      8.w.5.d u # u G 0.h.1.| j i y h A A H -.F D D j j V.F.#.J Z Z p @ @ ~ iX                                  ",
"                  lXt.M ^ _.a.S Y F + ; _ ..7.:.~ k l  .W m.|.E.m.' , ( ~ ^ p l , @ s G $.,.                                    ",
"              lXL.8.c x 5 8 (.i.: 9 3 3 u K.#.w.2.-.d.0X  5X] #.j d s 4.>.=.s y >.Z F U %.r.                                    ",
"              oXwXvXvX          6XG.A.z.7 Z.B ' |.tXtX|.O.;.D D h y - H l G %.X.Y #.s P P :X                                    ",
"                NXNX                          rXn.W K >.1.X.G J C i s  .=.>.>.1.>.l i I U.                                      ",
"              zX+X.X>X                    $X] O.H ..D J F :.o.%.I j k l j O.O.2.h P J U.BX  bXiX                                ",
"                    jX.X(.t.t.J.pX      V.~ 3 < X.~ $.H %.O.o.=.T D T >.1.#.p ..j Y ;XNXmX0X@X                                  ",
"                          iX            4.7 # X @ d q.X.2.=.| >.%.A &.H G P k l b.gXBX}.j.zX                                    ",
"                                    tX4.a # 4 2 X w.<.2.2.!.!.~.!.+.#.r.l q.oXdX  BX|.,.uX                                      ",
"                                  R.3.E u . 4 # M *.!.G R ,.1.^.~.Q I.pXsXBX  BX6Xh.` b.                                        ",
"                                R.f.r.R 5.o w w 9.f.Q.~ ^.~.^.[.xX      =XR.=X+XXX#XG.                                          ",
"                              tX| [.N J.wXbXmX      nXpX3X#X1X                                                                  ",
"                              p.r.hXtXR.K.@X<XuXkX                                                                              ",
"                            K./     L.uX                                                                                        ",
"                          tXu.    #X                                                                                            ",
"                          ).cX                                                                                                  ",
"                      >X`.#X                                                                                                    ",
"                  fXiXhX                                                                                                        ",
"                                                                                                                                ",
"                                                                                                                                ",
"                                                                                                                                ",
"                                                                                                                                ",
"                                                                                                                                ",
"                                                                                                                                ",
"                                                                                                                                ",
"                                                                                                                                ",
"                                                                                                                                ",
"                                                                                                                                ",
"                                                                                                                                ",
"                                                                                                                                ",
"                                                                                                                                "
};
