/* XPM */
static char *_bc68073442143458c271605e2352c66E8N5Kbyo6ELlSnlz[] = {
/* columns rows colors chars-per-pixel */
"64 64 238 2 ",
"   c None",
".  c #190C09",
"X  c #35170B",
"o  c #2B1B16",
"O  c #33160F",
"+  c #38231C",
"@  c #08153B",
"#  c #171C3A",
"$  c #2F1B2B",
"%  c #3B2A2E",
"&  c #282438",
"*  c #342733",
"=  c #352A34",
"-  c #3C2C35",
";  c #3C2C38",
":  c #352B3A",
">  c #3E3035",
",  c #3D323B",
"<  c #3D3A3A",
"1  c #4A0606",
"2  c #570505",
"3  c #47190C",
"4  c #541212",
"5  c #561412",
"6  c #640504",
"7  c #760707",
"8  c #7E1316",
"9  c #492715",
"0  c #562A16",
"q  c #512C17",
"w  c #652A15",
"e  c #6C341A",
"r  c #773B1B",
"t  c #79320B",
"y  c #4B1926",
"u  c #472C2A",
"i  c #572B28",
"p  c #4A332E",
"a  c #47332C",
"s  c #543B2D",
"d  c #5B3B2D",
"f  c #593627",
"g  c #432E34",
"h  c #4B2E34",
"j  c #432E39",
"k  c #4A2F39",
"l  c #53263B",
"z  c #443134",
"x  c #4B3334",
"c  c #4C3934",
"v  c #433139",
"b  c #4A3338",
"n  c #463939",
"m  c #533434",
"M  c #5B3534",
"N  c #543B33",
"B  c #5B3C33",
"V  c #563938",
"C  c #6A2625",
"Z  c #633E2E",
"A  c #69342E",
"S  c #753C2D",
"D  c #623C33",
"F  c #6B3D32",
"G  c #683834",
"H  c #723A33",
"J  c #742E2E",
"K  c #611F29",
"L  c #5D422D",
"P  c #5D4332",
"I  c #594338",
"U  c #66492D",
"Y  c #7D4C2D",
"T  c #75482B",
"R  c #7C552E",
"E  c #7D582C",
"W  c #634333",
"Q  c #6B4432",
"!  c #6B4A34",
"~  c #644736",
"^  c #734C33",
"/  c #7B4B32",
"(  c #714333",
")  c #6A5236",
"_  c #7C5432",
"`  c #745332",
"'  c #6E522F",
"]  c #031847",
"[  c #011D5B",
"{  c #011A54",
"}  c #192659",
"|  c #17224A",
" . c #2B2A46",
".. c #313150",
"X. c #021F63",
"o. c #022064",
"O. c #03236B",
"+. c #022572",
"@. c #03297C",
"#. c #092B78",
"$. c #1C2F70",
"%. c #273D7B",
"&. c #233162",
"*. c #483B44",
"=. c #50305F",
"-. c #621A44",
";. c #3F5E72",
":. c #4D4949",
">. c #585557",
",. c #544D53",
"<. c #664946",
"1. c #625B57",
"2. c #7B5947",
"3. c #61605C",
"4. c #55526D",
"5. c #645C66",
"6. c #6B6669",
"7. c #746C72",
"8. c #797679",
"9. c #6C7172",
"0. c #506F72",
"q. c #840404",
"w. c #980101",
"e. c #8A1616",
"r. c #A60404",
"t. c #B60506",
"y. c #B21216",
"u. c #8A162F",
"i. c #91352D",
"p. c #A03E26",
"a. c #C60505",
"s. c #D60101",
"d. c #D31C1C",
"f. c #E80101",
"g. c #F60000",
"h. c #D53C39",
"j. c #93441B",
"k. c #85492A",
"l. c #974C27",
"z. c #82552D",
"x. c #8B542D",
"c. c #845A2E",
"v. c #8B5D2D",
"b. c #825724",
"n. c #925E2D",
"m. c #955529",
"M. c #844B33",
"N. c #825632",
"B. c #845A32",
"V. c #8C5E30",
"C. c #855739",
"Z. c #9A5533",
"A. c #AD5829",
"S. c #8D622E",
"D. c #93622C",
"F. c #9C662A",
"G. c #8B6432",
"H. c #966433",
"J. c #A7672A",
"K. c #AA732B",
"L. c #B47C2E",
"P. c #B17529",
"I. c #B57B30",
"U. c #AE6938",
"Y. c #C96226",
"T. c #C46933",
"R. c #D37232",
"E. c #855B44",
"W. c #935F43",
"Q. c #90664F",
"!. c #A67456",
"~. c #B57B5B",
"^. c #AC6E4C",
"/. c #987767",
"(. c #DC7171",
"). c #E75E61",
"_. c #BA8437",
"`. c #BA843A",
"'. c #B9863C",
"]. c #B6832E",
"[. c #E0833C",
"{. c #E5E610",
"}. c #BE8A42",
"|. c #BE8A44",
" X c #BF8E4C",
".X c #BD8765",
"XX c #AB8268",
"oX c #C48A47",
"OX c #E2914E",
"+X c #C58B69",
"@X c #D4A17E",
"#X c #032C84",
"$X c #042E8B",
"%X c #092E81",
"&X c #04318F",
"*X c #043394",
"=X c #05369C",
"-X c #0A3698",
";X c #133D9C",
":X c #2A398B",
">X c #0539A4",
",X c #063CAB",
"<X c #0A3AA6",
"1X c #063EB4",
"2X c #083FB4",
"3X c #2B4C87",
"4X c #0741BB",
"5X c #0842BD",
"6X c #0641B6",
"7X c #1748B0",
"8X c #5E798B",
"9X c #0944C2",
"0X c #588EAD",
"qX c #898386",
"wX c #989898",
"eX c #A6A6A6",
"rX c #ACA9AA",
"tX c #B6B6B7",
"yX c #A7A4A0",
"uX c #ED8688",
"iX c #D3A88B",
"pX c #E8B58E",
"aX c #F0BBBA",
"sX c #DFAEB0",
"dX c #F5D5AC",
"fX c #F5D5AC",
"gX c #F5E1BB",
"hX c #E6C4A9",
"jX c #BBCACF",
"kX c #C4C4C5",
"lX c #D6D6D6",
"zX c #E5E5E5",
"xX c #F6EFE7",
"cX c #F4F0E7",
"vX c #F5F2E9",
"bX c #F8F4EE",
"nX c #F5F5F3",
"mX c #F0C7C7",
/* pixels */
"                                                                                                                                ",
"                                                                                                                                ",
"                                                                                                                                ",
"                          '.|.|.|.}.}.|.|.                  |.|.    |.oX}.|.|.|.|.|.|.|.|.|.|.oX|.'.oX X                        ",
"                        _.P.S.E B._ E _ R E N.R E _ N.N.B.N.E B.z._ z.x.z.E E _ c.v._ z.z.N.E x.N.n.P.L.                        ",
"                        `.J.R G.a % - L ` h g j - v % d W N g > - > V _ - : > z ^ B N v > L n.M.a z n.L.                        ",
"                        `.D.L W : g B N * ! = g z > ^ d a c m N g - * h c v v - g N N j x P T m v v c.I.                        ",
"                        `.S.x d g j x j z M _ B.D ' F.Q h h x d Q B h h V.g = = B g B = B h x.h - v c.L.                        ",
"                        '.v.N - - g Q g z.H f D z.].F.x.D.F N b A B.g * - x g v B z m d _ m M.g ; g B.L.                        ",
"                        `.v.m ; g ; N H.E x g Q F.E L p p m N j j g ; : v v b - v N - H x = _ x : - c.L.                        ",
"                        `.S.g ; - = p Q - ~ J.D.W - ; v N m N N x g g - g ; - N * N g W p z N b g z c.L.                        ",
"                        `.v.v - v W M s ! c U x.s N N c z j g ; v h x h g = * - j g g B N - - B = z c.I.                        ",
"                        `.v.g g V c m W = d n.P x z x x *.K M m p g - z ( N = k h g , g m j v g j v c.L.                        ",
"                        `.v.g B g m m - h B z x z x s J d.d.a.t.8 A B g g ( m v v m > - g - g c - x z.L.                        ",
"                        `.V.x g z m - - g z z L / W C h.aXuXuXs.t.r.C Z > - F g : g d L x g z m v b V.L.                        ",
"                        `.v.P ^ x ; - ; x z ) Q m i y.uX).pXuXd.a.r.q.y p z - U - * U ].x z h g z v z.L.                        ",
"                        `.V.x % - : - z x ' W x ! i.a.(.fXaX).t.t.r.w.7 g x z z N - - F z N g j M g z.].                        ",
"                        `.V.> - - > z a U P c P s e.t.y.e.7 7 6 q.q.q.7 6 z x > - % = = ; m v m L - z.I.                        ",
"                        `.v.v ; - g h W m p M c x 7 2 1 5 J i.O . 1 2 6 6 4 z n ; - : = - z v B L > c.L.                        ",
"                        `.V.v ; , x N m g h x z h 1 1 o E.pXXX` XX^.M.3 1 3 L > v - - * = h z ~ L v c.L.                        ",
"                        `.v.j g x x d g x g % k g 4 w .XrXgXdXjX0X@X~.0 X ^.E.v z - = = = x g ) ) z c.L.                        ",
"                        `.v.v h g Z B x g g - = > % f hX0XdXdXrX@ yXoX0 A W.^.I z - - = > c z Q B.z z.L.                        ",
"                        `.v.z N N P p g g - - v > < E hXdXdX@XyX8XQ.Q.W.9 ~.+XI - z - - ; z x u C.> z.L.                        ",
"                        `.v.~ Q P m g z - : , rXqXI R @XdXpX+X! u o W.!.^ +XE.> v z g x - ; c g G.- B.].                        ",
"                        `.v.^ B.x j z g  .& :.tX6.< s d !.Q.T o . E..XE.f V - ; > - z P * - x g _ z c.L.                        ",
"                        _.v.G.U z j z - ,.XX9.8.:.= I ! u o + a !.~.W.d X * = - > = M ^ * - x z ^ z c.L.                        ",
"                        `.S./ m h j m *.tXtXwX9.,.> > 2.~.W i H !.2.f X o * * : - * B ^ = - c a ^ p V.L.                        ",
"                        _.n.M x g x g 8.zXzXeX3.,.: * = ~ !.!.Q.4.y.s.a.r.8 K - - : c U g z x g ) s S.L.                        ",
"                        `.n.c x j N g qXlXkX8.3.:.= * i l u.H 7X=.s.g.f.f.f.f.a.i * p P M b z g P N c.L.                        ",
"                        `.v.x g g W - 7.kXtX3.>.< = K -.u.p.9.6Xt.s.s.t.w.a.g.f.8 * c M D h m g N P c.I.                        ",
"                        `.V.z m z ~ = >.tXeX3.,.:.C C.>X2X{.{.:Xy.s.t.6 7 g.g.a.5 = x x h ; m g P D v.L.                        ",
"                        `.V.M F x I - g = < :.:.1.t 3X4X5X9.4.,X:Xt.w.i.uX).a.q.y * v h z ; h g D D v.I.                        ",
"                        _.n.Q Y P c a I x 1.>.<.1 y >X5X9X1X1X4X1X$.l tXlXkX/.4 - = - z N - x g Q D x.L.vX                      ",
"                        _.v.v.R P v I N P z o 1 2 & ,X5X9X9X5X1X<X$X%.lXbXlX8. .: = % m N - x - ^ B c.L.vX                      ",
"                        `.c.n.Y ! % V z Q v > o 1 } =X,X4X4X6X,X$X#X:XlXnXzXyX*.= = > I I - b v / N c.L.vX                      ",
"                        `.S.T x.^ - k - ! g > = ; O.*X>X,X,X>X>X$X+.%.tXnXzXrX7., = s c c g z V W z c.L.vX                      ",
"                        `.S.M D.` g - - ~ x = : * | +.$X*X=X=X*X#X+.$.tXlXzXeXeXI & ~ z g z ; ! g z c.L.vX                      ",
"                        `.v.m F.R g - : P c - - : : { O.+.#X$X&X*X#X+.9.wXkXkXeX= n ! = g > - Q g z z.L.vX                      ",
"                        `.V.M x.Y z - % N P - - : j O.] [ X.+.@.$X&X@.{ 3.6.>.v = I B g m g x M h z z.L.vX                      ",
"                        _.D.Q m.k.z v x z W z z *  .,X&X[ { [ +.&X*X$X[ @ : : : a p ^ D z g m D - g S.L.vX                      ",
"                        _.n.z.k.M.z v x - M = x -  .6X6X,X%Xo.#X=X=X$Xo.] & > - N c F.B x j N d : m c.L.vX                      ",
"                        '.v.U Y m.c z z = x = z p &.6X6X>X#XO.&X,X,X&XO.] # = N c m m x z g P g ; M v.L.vX                      ",
"                        `.v.x T D.L v z - z - > I &.4X1X>X#X+.%X,X6X=X+.{ # ) P : : g g z h c - M M v.L.vX                      ",
"                        `.V.z F S.W > > ; z > - n %.5X6X=X@.O.#.6X6X>X#X{ @ = : = j g x g x - z / z z.].vX                      ",
"                        _.n.z F N.M g x g - c : ; ;X5X1X=X@.O.} =X6X,X#X[ ] * : - z m ; z h ; ` m z B.L.vX                      ",
"                        `.v.g T / m ; x V - x > : <X4X,X=X#.O.} =X6X6X*XO.] # v x m ; g x ; W W - z c.L.vX                      ",
"                        `.v.g R R W ; g x b v x &.1X1X,X*X@.X. .-X4X5X-X@.[ # N x ; g k - N ! g ; x c.L.vX                      ",
"                        '.c.s v.E ` - g M % x F :X5X1X>X*X@.[  .-X6X;X:X=...| & g j j = c _ x - g F c.L.vX                      ",
"                        `.v.^ p i._ = ; N B A.R.U.4.;X<X*X@.[  .%X$.x.Y.Y.Y.l.q h c - z S.m ; j M - B.L.vX                      ",
"                        `.v.- m H x.- j Q k.R.OXOXT.Z.<.n % + ;  .p.Y.R.[.R.A.r q - c W z.M x.Y h m v.L.vX                      ",
"                        _.v.Y D U l.g g T e l.^.U.Z.j.e e q f N w j.A.R.oXR.l.r q v g M Y S.J.Q j Y D.L.                        ",
"                      bX'.D.m = T J.c ; N p r e e 0 0 0 q f f u 3 w j.A.A.l.S 0 9 j h K.K.P.T m A Y n.L.vX                      ",
"                      bX'.v.v - B J.z ; I x ~ Q ( Z d E _ x - ; X X 0 e e w 0 X % i m.J.n.P.D.M.A K.v.L.vX                      ",
"                      bX`.v.v - j m = ; s ( l g j m * - U G.m g p 9 9 0 9 X 9 9 T J.F.m.k.d a g g k v.L.                        ",
"                      bX`.v.- - : - ; - - H m g h z m ; - z m x h x Z x.H.U.n.b.n.Z = _ x g v % * - B.I.                        ",
"                      bX`.V.z - ; - g - - Q / - x z = N ; ; - x m g - % g g g U g - , N N - * z x b B.L.                        ",
"                        `.v.b j ; - = = z ! T - ; k g W m ; - g j B W j x N m - - - ; N - j M D.S - c.L.                        ",
"                        `.v.- ; ; g b j ; b ; * ; j I ; v c , ; ; , g ! Q g , > - - j c - - h - R Z v.L.                        ",
"                        _.v.z - - > % g V N j :.5.6.8.5.7.6.5.7.,.5.7.6.6.7.7.6.*.; v - v ~ z ; = x n.L.                        ",
"                        _.P.c._ _ _ _ _ N.z.R _ R N.R R z._ R R R _ E B.R R R ` R R c._ R b._ N.R v.K.L.                        ",
"                        oX`.`.'.'.'.`.`._._.`.`.`._.`.`.`._.'.`._._._.`._._._.`.`.`.`._.`._._._.`.`._.oXvX                      ",
"                                                                  xXvXxXxXxXxXxXvXvXvXcXcXcXxXcXxXxXcXcX                        ",
"                                                                                                                                ",
"                                                                                                                                "
};
