/* XPM */
static char *_d433ae7c36b45ec985b5f6514995f27musCJ9YdvJsDR3MQ[] = {
/* columns rows colors chars-per-pixel */
"64 64 174 2 ",
"   c None",
".  c #322A2F",
"X  c #3B2C2E",
"o  c #322733",
"O  c #332933",
"+  c #3B2C35",
"@  c #372A38",
"#  c #3C2C38",
"$  c #3E3135",
"%  c #3E313A",
"&  c #442D2F",
"*  c #46322E",
"=  c #4B322E",
"-  c #47382F",
";  c #4F382E",
":  c #53322E",
">  c #5E362E",
",  c #513B2E",
"<  c #5A3C2F",
"1  c #432E34",
"2  c #4B2E35",
"3  c #432E39",
"4  c #492F38",
"5  c #512F34",
"6  c #443234",
"7  c #4B3334",
"8  c #463835",
"9  c #4C3934",
"0  c #433139",
"q  c #4A3338",
"w  c #433A39",
"e  c #4F3E38",
"r  c #533434",
"t  c #5A3534",
"y  c #543B33",
"u  c #5B3C33",
"i  c #543538",
"p  c #513939",
"a  c #5B3D38",
"s  c #6F372E",
"d  c #643E2E",
"f  c #6B3C2F",
"g  c #703C2D",
"h  c #663730",
"j  c #6F3733",
"k  c #623C33",
"l  c #6B3D32",
"z  c #623B39",
"x  c #723A33",
"c  c #5C412D",
"v  c #564234",
"b  c #5D4233",
"n  c #5C4935",
"m  c #5B453A",
"M  c #64472C",
"N  c #6A422A",
"B  c #624A2E",
"V  c #6D4F2D",
"C  c #73462C",
"Z  c #7A432B",
"A  c #744D2E",
"S  c #7D4C2D",
"D  c #6E522F",
"F  c #7E5626",
"G  c #7C542E",
"H  c #7C582E",
"J  c #634333",
"K  c #6B4332",
"L  c #634A34",
"P  c #6B4A34",
"I  c #66453A",
"U  c #694638",
"Y  c #714333",
"T  c #734C33",
"R  c #7B4A32",
"E  c #6E5134",
"W  c #62523A",
"Q  c #6C5039",
"!  c #735233",
"~  c #7C5432",
"^  c #765931",
"/  c #7B5A32",
"(  c #473E46",
")  c #4C4047",
"_  c #514852",
"`  c #635B65",
"'  c #685F69",
"]  c #6E6467",
"[  c #6D666B",
"{  c #6E686D",
"}  c #726770",
"|  c #746C72",
" . c #7B717B",
".. c #81472F",
"X. c #80482B",
"o. c #8B4D2C",
"O. c #944C2C",
"+. c #82552D",
"@. c #8B542D",
"#. c #845A2E",
"$. c #8B5D2D",
"%. c #93562B",
"&. c #925E2D",
"*. c #834531",
"=. c #834F34",
"-. c #825632",
";. c #845A31",
":. c #8F5F31",
">. c #8B5E30",
",. c #835539",
"<. c #815D38",
"1. c #885E38",
"2. c #8D622E",
"3. c #8E6F2E",
"4. c #9C6226",
"5. c #936926",
"6. c #9E6827",
"7. c #91612C",
"8. c #96662F",
"9. c #93622C",
"0. c #9B6328",
"q. c #9E652D",
"w. c #9D642A",
"e. c #9C6B2F",
"r. c #8D6631",
"t. c #8A6433",
"y. c #966731",
"u. c #986730",
"i. c #A2652A",
"p. c #AB6128",
"a. c #A96E2C",
"s. c #A07427",
"d. c #A2702D",
"f. c #AD7228",
"g. c #AC712B",
"h. c #A67F2E",
"j. c #B17625",
"k. c #B0742C",
"l. c #B47B2D",
"z. c #B37C2F",
"x. c #B57C2E",
"c. c #B47C2E",
"v. c #A16931",
"b. c #B57B30",
"n. c #B6832E",
"m. c #BB8336",
"M. c #BA8437",
"N. c #B7833A",
"B. c #B7843A",
"V. c #BB833B",
"C. c #BC833A",
"Z. c #BA843A",
"A. c #BE8B3F",
"S. c #BD8B41",
"D. c #BE8A41",
"F. c #BE8943",
"G. c #BD8A43",
"H. c #BE8A42",
"J. c #BF8A43",
"K. c #BE8B43",
"L. c #BE8842",
"P. c #BF8944",
"I. c #BD8A45",
"U. c #BE8A44",
"Y. c #BD8941",
"T. c #BF8E4C",
"R. c #C08A42",
"E. c #C08A44",
"W. c #C18D4D",
"Q. c #C09655",
"!. c #F5EFE5",
"~. c #F6F1E7",
"^. c #F4F0E6",
"/. c #F5F2E8",
/* pixels */
"                                                                                                                                ",
"                                                                                                                                ",
"                                                                                                                                ",
"                        Q.A.F.F.U.S.S.S.U.U.S.U.U.U.S.U.G.F.I.F.I.R.F.R.S.F.S.F.F.I.F.F.F.F.F.F.F.F.E.T.                        ",
"                        M.j.r.G +.;.H G G G -.+.H +.+.;.-.;.H ;.+.~ +.#.+./ G / #.$.G ;.+.+.G #.-.&.f.x.~.                      ",
"                        C.6.S r.7 O + < ! 7 6 # # 0 X < J y 1 + # + u R + + # 1 T u p 6 + M $.=.* 6 &.x.                        ",
"                        Z.7.n d O 1 u y o P O 1 6 # T < * , r y 1 # + 2 7 q 6 + 1 y y 1 q u Z r 0 0 #.x.                        ",
"                        V.:.7 < 6 # 7 1 6 z G ;.< D 0.Y 2 2 7 u Y < 7 2 ;.6 O O u 1 u + u 2 @.7 + 6 ;.x.                        ",
"                        B.$.y 1 + 1 J 1 +.s t > G n.5.@.8.l y 9 h #.2 o + r # 0 u 6 p > G 5 =.2 # 6 ;.x.                        ",
"                        N.$.9 # + # t y.H 7 & K q.#.< 7 = 7 y 1 1 # @ # # 7 q # 6 y + g 2 + -.6 O # #.x.                        ",
"                        Z.$.1 # + # : J + L q.u.M + + 8 p r y y 7 1 2 O 1 # + y o y 1 J 7 1 , 7 1 q #.b.                        ",
"                        V.$.6 + 6 J t < P y N @.y r y 7 2 1 1 # $ 2 7 2 1 @ . + 3 2 1 u 9 1 + a O 6 #.b.                        ",
"                        C.$.1 3 r 9 r J + u :.b 7 6 7 7 9 7 7 9 7 1 # 2 K , + 1 2 1 1 1 7 3 1 1 # 6 #.z.                        ",
"                        V.$.1 a 1 7 , + 2 y 7 7 6 7 7 y q 1 2 3 6 t u + 1 Y r 6 3 9 1 1 1 1 1 9 # 7 +.z.                        ",
"                        C.:.7 * 2 t + # + 6 6 c ..k 7 2 9 y y r 2 # y k 6 # l 6 # + < v 7 1 6 p # 9 $.b.                        ",
"                        V.$.b T 7 + # + 7 6 Q N y r h , 7 7 u u u J p # * 6 + J + o M n.7 7 1 1 7 q +.x.                        ",
"                        Z.:.7 X + + + 8 6 ! b 7 P T = 3 2 p n L b 7 y v 3 8 6 6 p + 1 M 6 p 1 3 r 1 +.x.                        ",
"                        V.>.$ + + + 7 6 M b 7 L y 9 6 + # . O O + 7 8 8 L 8 7 # 1 + O + 1 p 1 7 y 6 #.b.                        ",
"                        V.$.0 # + 6 2 d 5 = t ; 8 X e 8 + + O O O O + 8 1 L 6 8 + + O O + 2 8 a c + #.x.                        ",
"                        N.>.0 # % 6 u r 2 7 7 $ 9 n 8 $ O # # + O o @ + 8 7 L $ 1 O O o O 2 7 J L 6 #.x.                        ",
"                        Z.$.3 3 7 7 t 2 7 2 X 1 8 O + . $ $ $ % + + o + + 6 v 8 7 + + o O 8 1 E P 6 #.x.                        ",
"                        Z.$.0 2 2 d < 8 1 + + O $ . $ $ $ % . . O o O o o + 6 v 1 + + O # 9 1 K ;.$ #.x.                        ",
"                        V.$.6 u y v 6 * # O # 0 . % v % $ . O o O o O # o O + 9 + 6 # + 3 6 6 5 1.+ #.l.                        ",
"                        B.$.J J b 7 2 6 + + $ + O v $ . . . o o o O o O + O O $ $ 6 1 7 + + 7 1 t.+ ;.x.                        ",
"                        V.>.A t.y # 2 1 O O @ % 9 $ O + o o o o o o O o o O O O $ + 6 b O + 9 1 G 6 >.l.                        ",
"                        V.$.t.M 2 # 7 + O + + q 9 O . o o o o O O o o o o O o $ $ O t T o + 6 * P $ >.l.                        ",
"                        V.7.Z r 1 1 7 + $ + $ n . $ O O o o o o o o O o O O O O + o u T O # 7 * T * >.l.                        ",
"                        V.9.r 9 6 7 1 # 8 O 9 - O O o O o o O o O o o O O O O O + o y P 2 6 9 & E y >.x.                        ",
"                        V.$.9 2 3 y 1 O y + 9 $ O O o o o o o O O o o O o o O O + O 9 b t 7 7 # L y #.x.                        ",
"                        V.$.7 1 1 J + . 6 8 8 O O O o o o O O o o o O o o O O O O O 9 p k 2 7 1 y u #.x.                        ",
"                        V.>.7 r 1 J + O + p # O O O . O o O o O O o o O o o o O + o 7 7 2 + r 2 u k $.x./.                      ",
"                        Z.$.y l 9 a O 6 1 8 # + O @ . O o o O o o O o O o o o O + o 6 2 q + 1 7 k k $.x./.                      ",
"                        V.$.N S u 9 8 v 8 8 $ O . O o o o o o O O o o o o o o % + O + 1 p + 7 1 l k $.b./.                      ",
"                        V.$.$.+.J 1 n y v $ + O . % . o o o O o O o o O O o o % O O + y y # 9 + Y u #.b./.                      ",
"                        N.$.$.S P + p 6 P 2 $ O O ( o O o o o O o o O o O O O % O + & y v # 7 1 R p #.x./.                      ",
"                        N.2.C @.A + 2 + P 1 + O . $ o o o o O o o o o o o . @ . O O y 9 7 7 6 y M 8 +.x./.                      ",
"                        V.2.t 9.! # + + J 7 + + O % . O o O o O O o O o O . % . O $ L 6 1 7 # U & 1 #.x./.                      ",
"                        V.$.y 0.S 6 # O < 9 + + @ $ O O o o O o o o o O o % O o O - U + 1 $ + N 1 6 #.x./.                      ",
"                        V.:.: %.R 6 + X y L $ $ O $ @ O o o o o O o O O % @ O O O v u # 7 1 7 u 2 6 ;.x./.                      ",
"                        M.:.C @.X.6 6 7 6 m $ $ O $ O O O o O O o o O . . O O . 8 * A d 7 1 t z + 1 #.x./.                      ",
"                        Z.7.+.o.o.7 6 7 + t + 7 + + % O o O O o o o O O O O + + p ; 9.u 8 1 t u @ r #.b./.                      ",
"                        Z.$.P G %.8 7 6 O 7 + 6 q O + 7 O O @ O O o O O @ O + 9 9 t r 7 2 1 b X # u $.l./.                      ",
"                        Z.$.7 N y.y 6 + + 7 O $ v + o z 6 O O @ @ % @ @ + o W n O + 1 4 6 7 7 + t t #.l./.                      ",
"                        Z.>.7 f #.P 6 6 @ 1 8 O 8 v + + p + # O O . @ . O o o @ O # 1 7 # 7 + 2 R 6 >.l.                        ",
"                        V.$.6 s ,.t 3 7 3 + 8 + + y + O + # O @ O O o @ O @ + O # 6 r # 7 1 # ! r 1 #.x.                        ",
"                        M.$.1 A ~ 5 + 7 p + 8 6 + # y + O 1 + O @ @ + + O % + 2 2 p # 1 7 + L J # 6 +.x.                        ",
"                        Z.$.$ H G J # 1 2 9 3 2 + + 1 1 + # 8 9 $ + @ O $ 8 p a r + 3 4 # y P 1 # 9 >.l.                        ",
"                        Z.#.< @.F ! + 3 t X + r 6 # # 3 # + + 6 W ^ u a y z r 1 # 1 1 + 9 ~ 6 1 1 z #.l./.                      ",
"                        V.$.T = ..G + # t 1 # + u + $ # 1 # 1 1 O + 3 6 1 + + 1 7 9 # 6 7.r + 3 t 1 +.x./.                      ",
"                        N.$.X r x O.+ 1 K < 1 6 7 c # $ $ $ 1 1 7 6 $ 6 6 7 2 y 7 + ; J -.r @.S 2 r 2.l./.                      ",
"                        M.2.R k D O.2 1 A r 4 u -.f b + + + 3 6 6 q 6 7 2 2 y 7 1 3 # t S 7.w.T 1 S 7.l./.                      ",
"                        V.7.7 # N i.7 # y 1 3 X 5 : G Y # $ # + # 1 k u 7 7 1 # + # 7 g.g.k.Z : t S 7.l./.                      ",
"                        Z.$.6 # r v.6 + a 7 1 + + + 8 H ~ 7 + # # # 7 * 3 1 + + + r %.i.&.f.5.R j a.#.x./.                      ",
"                        V.$.6 + 1 r + # ; K 5 1 + i + O M >.t 1 + + + # + O + c %.p.q.%.o.> & 4 1 5 $.b./.                      ",
"                        C.$.+ # + + # # 1 x r 1 2 1 7 # + $ y 2 2 5 r 5 t S 3.s.4.k X ~ 7 1 1 X O + >.b./.                      ",
"                        C.$.6 # 1 # # 1 O K R + 7 2 + t # # + 7 p # + + + + 2 M 1 # # u y # o 6 7 q ;.x./.                      ",
"                        Z.$.q # # + @ # 6 P T + + q 1 J r # # # 3 a J 1 7 y y + + # # y + + u 9.g + #.x./.                      ",
"                        V.$.1 + 3 1 1 3 # 6 1 O # # m $ 0 9 $ # # # 1 P P 1 # + + + 1 p + + 2 + R M $.x.~.                      ",
"                        M.&.6 + + + O X y r 0 ) ' {  .` } { ' | _ ` | [ ] | } [ ( + 6 + 1 J 6 + + 7 $.x./.                      ",
"                        M.a.#./ ~ -.~ / -.+.G ~ G G G G +.G H G G ;.G ;.G G G ! ~ G ;.G +.#.~ -.G $.g.x.~.                      ",
"                        W.Z.Z.m.Z.Z.Z.Z.M.M.C.Z.C.M.Z.C.C.Z.M.M.m.M.Z.Z.Z.M.Z.Z.Z.Z.Z.Z.Z.Z.Z.Z.C.C.m.F./.                      ",
"                                /./.~.                                          ~././.^.^.~.!.^.~./.~.~.                        ",
"                                                                                                                                ",
"                                                                                                                                "
};
