/* XPM */
static char *d3e6ec99c67a4a1bfdced541d9dc0f10F12TDKxWA9OZwMAf[] = {
/* columns rows colors chars-per-pixel */
"64 64 244 2 ",
"   c None",
".  c #0C0B0D",
"X  c #160D0C",
"o  c #151312",
"O  c #1C1817",
"+  c #050F1D",
"@  c #261D1A",
"#  c #30140B",
"$  c #3B211D",
"%  c #0D1A29",
"&  c #261B21",
"*  c #1C2B39",
"=  c #2C2A2C",
"-  c #292526",
";  c #322E2D",
":  c #3C2C24",
">  c #38302D",
",  c #353234",
"<  c #3B3435",
"1  c #3A373A",
"2  c #3C3A3B",
"3  c #343538",
"4  c #2D2B38",
"5  c #571906",
"6  c #4D0F17",
"7  c #681A14",
"8  c #58331D",
"9  c #552914",
"0  c #66240B",
"q  c #79250C",
"w  c #6A2813",
"e  c #782917",
"r  c #67371C",
"t  c #743216",
"y  c #560B24",
"u  c #741225",
"i  c #452A25",
"p  c #433D3C",
"a  c #453833",
"s  c #51352B",
"d  c #7B2324",
"f  c #6A3527",
"g  c #75382A",
"h  c #564339",
"j  c #704731",
"k  c #073856",
"l  c #11334F",
"z  c #3A3A42",
"x  c #243147",
"c  c #153E63",
"v  c #0E3E6D",
"b  c #453C45",
"n  c #533D51",
"m  c #7B3A5F",
"M  c #4D3F68",
"N  c #36465A",
"B  c #154E72",
"V  c #2E5270",
"C  c #34617C",
"Z  c #444244",
"A  c #494444",
"S  c #4E4846",
"D  c #4C4A4C",
"F  c #49464A",
"G  c #534A47",
"H  c #4F4B52",
"J  c #504F53",
"K  c #555354",
"L  c #595759",
"P  c #645C5C",
"I  c #764F46",
"U  c #7B6654",
"Y  c #7B634D",
"T  c #5E5C61",
"R  c #595064",
"E  c #405D75",
"W  c #445769",
"Q  c #4C6375",
"!  c #636164",
"~  c #6C6A6B",
"^  c #686767",
"/  c #79797B",
"(  c #716D71",
")  c #7A5A64",
"_  c #821E17",
"`  c #892812",
"'  c #952A12",
"]  c #883819",
"[  c #9A3817",
"{  c #932F0E",
"}  c #A62A15",
"|  c #B52D15",
" . c #A33A15",
".. c #A63819",
"X. c #B63717",
"o. c #873B24",
"O. c #973429",
"+. c #8F2E38",
"@. c #A63724",
"#. c #B13733",
"$. c #C43216",
"%. c #CA3818",
"&. c #D73717",
"*. c #C02A14",
"=. c #E23A17",
"-. c #D43C24",
";. c #94441C",
":. c #A6441C",
">. c #B6421D",
",. c #BE521A",
"<. c #8B4627",
"1. c #974A28",
"2. c #895739",
"3. c #985C37",
"4. c #924B33",
"5. c #AA4B27",
"6. c #B84824",
"7. c #B75729",
"8. c #A55D37",
"9. c #AA502C",
"0. c #99613A",
"q. c #A9643A",
"w. c #B46938",
"e. c #BA6F35",
"r. c #C3461B",
"t. c #D74918",
"y. c #D75519",
"u. c #C5551C",
"i. c #E4441A",
"p. c #EA491C",
"a. c #E85719",
"s. c #F25B1C",
"d. c #ED6E1A",
"f. c #C65925",
"g. c #D25828",
"h. c #CF4F28",
"j. c #E8592B",
"k. c #C86629",
"l. c #D76729",
"z. c #DC7C2D",
"x. c #D9772B",
"c. c #C86633",
"v. c #D86735",
"b. c #D77734",
"n. c #C67333",
"m. c #E16C23",
"M. c #F3692B",
"N. c #E67629",
"B. c #E27A32",
"V. c #F2742A",
"C. c #905E44",
"Z. c #9A664B",
"A. c #936E58",
"S. c #AA6B47",
"D. c #BB6E47",
"F. c #B7764A",
"G. c #B86A51",
"H. c #B87956",
"J. c #AC7554",
"K. c #84736B",
"L. c #91706B",
"P. c #B4574F",
"I. c #CC5C47",
"U. c #CA7546",
"Y. c #D57B59",
"T. c #D26F4B",
"R. c #DD6556",
"E. c #DF822C",
"W. c #DC8B37",
"Q. c #E3872E",
"!. c #E48333",
"~. c #E78A38",
"^. c #F5873C",
"/. c #EB973A",
"(. c #F89439",
"). c #FAA13D",
"_. c #F1A218",
"`. c #B98256",
"'. c #978475",
"]. c #BB8872",
"[. c #B7866A",
"{. c #C78349",
"}. c #CD8D5C",
"|. c #C48253",
" X c #D58D58",
".X c #DC844C",
"XX c #EC9945",
"oX c #F69A44",
"OX c #E98558",
"+X c #F39354",
"@X c #F8A344",
"#X c #F6A853",
"$X c #C79267",
"%X c #D69969",
"&X c #C6937A",
"*X c #E79D66",
"=X c #E89270",
"-X c #DCA375",
";X c #D5A277",
":X c #DCA06E",
">X c #E6A976",
",X c #F0B27D",
"<X c #EEA363",
"1X c #F4D27F",
"2X c #2D5A84",
"3X c #176392",
"4X c #266894",
"5X c #1472A4",
"6X c #2878A5",
"7X c #387FAB",
"8X c #577895",
"9X c #4E6C86",
"0X c #1885B4",
"qX c #728A97",
"wX c #508AAB",
"eX c #8A919A",
"rX c #8D8E92",
"tX c #BF9995",
"yX c #A7A7AB",
"uX c #8EA1AE",
"iX c #D19B86",
"pX c #DBA78A",
"aX c #D6AD91",
"sX c #ECB484",
"dX c #E8B388",
"fX c #F2BA8A",
"gX c #E9BA97",
"hX c #EAB192",
"jX c #C2A8A3",
"kX c #E8B7A5",
"lX c #F4C487",
"zX c #F6C697",
"xX c #EDC29B",
"cX c #C9C2BB",
"vX c #E7C5A8",
"bX c #F6CDA7",
"nX c #F8D7A8",
"mX c #F9D8B5",
"MX c #E9CBAF",
"NX c #A6B9C7",
"BX c #ECD9C8",
"VX c #F6E1C6",
"CX c #F4ECE2",
"ZX c #D7CEC6",
/* pixels */
"                                                                                                                                ",
"                                                        Z                                                                       ",
"                                                      Z D                                                                       ",
"                                                    D Z K                                                                       ",
"                                                  Z D Z D                                                                       ",
"                                            !   ! Z D z D                                                                       ",
"                                            Z K L D F 2 D                                                                       ",
"                                          D 2 D F L z 2 D ~           / =                                                       ",
"                                          Z D L 3 D h 2 K J 2       8X: L                                                       ",
"                                        ! Z P P 3 3 z 1 ! 2 - z     p o                                                         ",
"                                        J N ~ ^ Z = a 1 ^ 2 3 = p > - X                                                         ",
"                                        K J ~ ~ 2 1 : N ! h h 3 = N o ;                                                         ",
"                                        J L K K A 2 - Z h - h 2 ; - . /                                                         ",
"                                    /   ^ ! K K D h 2 - o o z 3 = O .                                                           ",
"                                    ! ! T D Z D D S 2 - O o , > @ O o K - . ^                                                   ",
"                                    yXK K ^ h N h D p h h , > > i O o O . D                                                     ",
"                                      L T ^ L h h D K Z K , K h j : o X 4                                                       ",
"                                        D T < > > &X~ = h 2 o @ @ @ s X G <.s                                                   ",
"                                        L 2 K G U zX'.: 3 3 3 @ @ i f # o.4X5X6X8X8X                                            ",
"                                          rX2 S D ;XaXP ; ; ; ; s 9 9 ` D 4X4XW h O .                                           ",
"                                        kXkXA.J.A.A.( '.Y j > K.C.r r ` B V < $Xq.j @                                           ",
"                                      D.8X8XI 1.U.|.aXZX/ ].C.J.Z.j 5 9 k h F.$X3.0.f                                           ",
"                                    yXE 6XwXwX! 7.%XsXMXbXxX0.2.4.# 9 - 3 S.}.`.<.H.j                                           ",
"                                    V ^ ^ ~ C 2XC 1.1.lX$X&XI.Z.<.X w O F.}.}.w.`.r '.                                          ",
"                                  qXU zXfXgX-X$XU E f %X3.$XkX%X0 X e C.fX>X}.-X}.2.cX                                          ",
"                                  qXA.fX,XsXfXzXmXgXL.e.<.F.H.3.0 # w ;XmXzX>X%X-X3.`.                                          ",
"                                  uXU ;X>XfXfXzXgXmXnX%Xk.q.o.e ] O.+.iXmXbX>X X;XF.S.                                          ",
"                                    ( -XfX,XzXdXq.|.>XF.U.w.t 7 u +.4.R.xXOX,X X.X|.3.                                          ",
"                                    NXC.|.>XsXzXn.c.U.4.e.3.8.3.g <.d kX<X=XnX>XY.>XS.                                          ",
"                                      uX'.zXfX*XI.D. Xw.c.~.XX<.c.W.H.-X1.VX>XR.hXkX3.                                          ",
"                                        MX:X-X%XpX%Xn.w.V.<XJ.<X+X@XzXr S.T.#.=X-XI.g   W B                                     ",
"                                          CXaXdXv.s.1.V.b.H.>X<X^.T.F.<.d u m / f.@.9 z V                                       ",
"                                      kX  kX4.6.p.h.7.c.v.OXB.8.q.c.<.d.k.y R ) -.1.r rX                                        ",
"                                    vXhXP._ O.6.5.@.i.p.M.6.Z.Y.V.a.U.s.d.f m g N 5.8.                                          ",
"                                VX@X(.b.O.@.6.} $.| =.t.O.k.M.p.i.v.h.s.s.o.n k h H.                                            ",
"                            nX+X(.@X^.@.@.X...} 7 q `  .i.i.=.=.j.c.i.i.a.o.v x +.J.                                            ",
"                          bX#X(.@XoXf.y 7 g.g.' | *.*.&.&.| &.p.U.&.&.&.X.$X'.Y.vXBX                                            ",
"                          +XoXoX@Xg.h.@._ X.h.y.X.} $.$.%.$.} 7.%.| ` { c.nXnXlX|.] g                                           ",
"                          oXoX^.v.+.O.l.O.y d f.y.y.>.X.#.' } t. .%.X.=.OX*X,.;.7.f.{ G.                                        ",
"                          ^.#X^.B.E.b.l.6.#.5.5. .X.y.a.&.} ' t.a.a.| t.bXbXk.l.x.f.>.f.[.                                      ",
"                          OX^.B.N.B.z.l.k.:.;.` [ t.&.t.t.&.t.t.,.X.j.U..XlX*X!.B.,.k.k. .pX                                    ",
"                            V.v.c.h.7.,.,.7.@.6 6 u.a.d.d.t.a.%.>.e ;Xv.A.vX1.k.g.l.Q.u.7.7.                                    ",
"                          L.9XC.5.[ ] 5 e v.| 6 d m.u.d._.=X7.5.9.U.f.2.x i 9.!.x.f.z.x.n.u.7.pX                                ",
"                        jX2XB z e.W.e.q l.U.Y.aXMXvXhX1XmX        [.8 = * $ x.l.g.!./.z.E.l.k.{                                 ",
"                                    tXD.kXhX                          9Xx i ~./.~.!.!.E.Q./.Q.:.8.                              ",
"                                    dXbXmXCX                              F g.B.~.XX/././.E.u.{ :.U.                            ",
"                                  zXzX                                      T.~.N.!.z.x.u.>. .{ q  .                            ",
"                                                                              Y.XXoXQ.z.x.u. .{ 5 @.].                          ",
"                                                                                T.~./.E.{ q q 5 5 [ A.                          ",
"                                                                                OXl.W.k. .{ 5 5 q :.jX                          ",
"                                                                                  l.k.:.' q 0 ` ;.5.                            ",
"                                                                                  iXx.x.k.k.n.k.:.f                             ",
"                                                                                    iX5.e q 0 # X +                             ",
"                                                                                        Q z @ + X % eX                          ",
"                                                                                        NXB k % % o qX                          ",
"                                                                                          wXB k k @ ~                           ",
"                                                                                            9XB * 8 -                           ",
"                                                                                            jXC C p x V                         ",
"                                                                                              eX6X5Xb B yX                      ",
"                                                                                                4X0X7XN 9X                      ",
"                                                                                                eX5X0XR N                       ",
"                                                                                                  / 3X6Xn                       ",
"                                                                                                      C n                       ",
"                                                                                                                                "
};
