/* XPM */
static char *_e2bbea2159e4014b2d52f800c50cd02eQeagoapKINtQEz2[] = {
/* columns rows colors chars-per-pixel */
"64 64 189 2 ",
"   c None",
".  c #010101",
"X  c #0B0605",
"o  c #00030B",
"O  c #0C0C0C",
"+  c #040A0C",
"@  c #140B09",
"#  c #1B0F0C",
"$  c #130908",
"%  c #1D110D",
"&  c #000011",
"*  c #050E10",
"=  c #07151B",
"-  c #151515",
";  c #1C1C1B",
":  c #1A1A18",
">  c #20120E",
",  c #2C1913",
"<  c #241815",
"1  c #321D16",
"2  c #371F18",
"3  c #3E241B",
"4  c #39251D",
"5  c #0B1D23",
"6  c #000030",
"7  c #281929",
"8  c #3D1B20",
"9  c #0E252B",
"0  c #172B2D",
"q  c #132F39",
"w  c #1F2732",
"e  c #19343D",
"r  c #073426",
"t  c #222222",
"y  c #2A2A2A",
"u  c #3C2825",
"i  c #212F33",
"p  c #2A393D",
"a  c #213338",
"s  c gray19",
"d  c #3A3B3C",
"f  c #383535",
"g  c #3D302B",
"h  c #490000",
"j  c #5C1C1E",
"k  c #6B0006",
"l  c #7D0005",
"z  c #42251D",
"x  c #46281E",
"c  c #49291F",
"v  c #471F25",
"b  c #66122C",
"n  c #4D2C22",
"m  c #452D25",
"M  c #522F24",
"N  c #592328",
"B  c #533125",
"V  c #5D3528",
"C  c #5A3629",
"Z  c #463A34",
"A  c #4D3535",
"S  c #61372A",
"D  c #62382B",
"F  c #6A3C2E",
"G  c #642C34",
"H  c #6B3939",
"J  c #6F3E30",
"K  c #703F31",
"L  c #72313E",
"P  c #4E413B",
"I  c #53443B",
"U  c #58493E",
"Y  c #684C38",
"T  c #744132",
"R  c #7C4536",
"E  c #78493C",
"W  c #173A45",
"Q  c #2E3942",
"!  c #7A324F",
"~  c #1A404C",
"^  c #1B4451",
"/  c #2C434B",
"(  c #394447",
")  c #315658",
"_  c #3A4E55",
"`  c #004770",
"'  c #005976",
"]  c #275A6A",
"[  c #265F71",
"{  c #325460",
"}  c #2A6273",
"|  c #3C6370",
" . c #444444",
".. c #4A4A4B",
"X. c #454648",
"o. c #5A524C",
"O. c #474D51",
"+. c #545555",
"@. c #5A595A",
"#. c #4F5253",
"$. c #754C43",
"%. c #665C59",
"&. c #6F4E47",
"*. c #78665A",
"=. c #4F5C65",
"-. c #525D68",
";. c #775066",
":. c #5B6366",
">. c #6B6968",
",. c #7C6B6E",
"<. c #696E76",
"1. c #6B727D",
"2. c #7D7D7D",
"3. c #767676",
"4. c #9A2C1F",
"5. c #960D2F",
"6. c #9E373E",
"7. c #D3362A",
"8. c #814838",
"9. c #804737",
"0. c #A4423A",
"q. c #932C49",
"w. c #A43940",
"e. c #895149",
"r. c #91594E",
"t. c #8E5053",
"y. c #BF4953",
"u. c #866248",
"i. c #926B4F",
"p. c #A97C5C",
"a. c #AA765D",
"s. c #936767",
"d. c #817C7B",
"f. c #B66B66",
"g. c #D75F70",
"h. c #D7736C",
"j. c #FD6166",
"k. c #9B807F",
"l. c #BD8A65",
"z. c #B68769",
"x. c #C28D68",
"c. c #D18C70",
"v. c #D09870",
"b. c #D29F7A",
"n. c #D4A07B",
"m. c #2F7389",
"M. c #36788D",
"N. c #337D95",
"B. c #727883",
"V. c #348098",
"C. c #798798",
"Z. c #7C91A4",
"A. c #868585",
"S. c gray55",
"D. c #838E9C",
"F. c #919191",
"G. c #AC918E",
"H. c #9A9FA0",
"J. c #9AA7BB",
"K. c #ADADAD",
"L. c #A1A5A6",
"P. c #B9ABAB",
"I. c #B4B4B4",
"U. c #B9BABA",
"Y. c #B6B7BB",
"T. c #AEB1BA",
"R. c #C7A794",
"E. c #E1B08F",
"W. c #E3B393",
"Q. c #CDB3B1",
"!. c #F8D0B8",
"~. c #8DA3C2",
"^. c #9EACC5",
"/. c #ABBAD0",
"(. c #B0BFD4",
"). c #B1B8C3",
"_. c #90BBE1",
"`. c #C8B2D5",
"'. c #BDC3C7",
"]. c #BECADB",
"[. c #CBCBCB",
"{. c #CBC1C1",
"}. c #C8CDD4",
"|. c #D6CDC6",
" X c #C8D3E2",
".X c #DEE3E9",
"XX c #E5E5E5",
"oX c #EAEAEA",
"OX c #FCFBFC",
/* pixels */
"                                                                                                                                ",
"                                                                                                                                ",
"                                                                                                                                ",
"                                                                                                                                ",
"                                                                                                                                ",
"                                                                                                                                ",
"                                                                                                                                ",
"                                                                                                                                ",
"                                                                                                                                ",
"                                                                                                                                ",
"                                                                                                                                ",
"                                          Q . . . .     & . .                                                                   ",
"                                          Q . z M D f i < 2 . &                                                                 ",
"                                          i X m V 8.2 # V M $ . .                                                               ",
"                                          0 . . , 8.9.9.9.T S % o                                                               ",
"                                            r @ > K K K R R K n m                                                               ",
"                                              - # B D F R R R 8.R x , . . -                                                     ",
"                                                  @ @ % V F F F F V n 1 z n f d 7                                               ",
"                                                  @ @ % M V V V C C B 3 A I > # @                                               ",
"                                              t % V T R c 3 3 3 3 3 z z | M.$.T S < ;                                           ",
"                                            ) 4 z F R 8.D V V V V z g _ =.:.8.R K z u                                           ",
"                                          / X C F 8.8.8.8.8.8.8.T x d N.%.8.8.8.8.F B X l                                       ",
"                                          +.X F R 8.8.8.8.8.8.8.R T E &.E 8.8.8.8.R K X 5.                                      ",
"                                          @.. T 8.8.R R R R R R R R R R R R R R 8.8.T X q.                                      ",
"                                          @.X F 8.8.F D D V D D D D D D D D D F 8.8.T X t.                                      ",
"                                        | P 4 T R T F D D D D D D D D D D D V F T R R 4 L                                       ",
"                                        . 3 D R T D D D D D D D D D D D D D D D D T R F j .                                     ",
"                                        . , n D F D D D D D D S D D D D D D D D V F D n 1 .                                     ",
"                                        . 4 C C V D D D D S D D D D D D D D D D D V C C m .                                     ",
"                                        . u.x.B x D D D D D D D D D D V D D D D D c n l.i..                                     ",
"                                        . u.x.4 1 D D D D D D D D D D D D D D D D 4 , l.i.. Q.                                  ",
"                                        . u.l.% # D D D D D D D D D D D D D D D D % @ l.i.. I.                                  ",
"                                          @.1 . % D D D D D D D D D D D D D D D D % . < o.[.                                    ",
"                                          2.s . % D D D D D D D D D D D D D D V D % . s <.                                      ",
"                                              t % V V D D D D D D D D D D D D D D % : XX                                        ",
"                                              S.>.1 M D D D D D D D D D D D D B 1 %.S.                                          ",
"                                                K.. 3 D V D D D D D D D D D D x . K.                                            ",
"                                                  [.#.$ @ , D D D D D D , @ @  .[.                                              ",
"                                                  [.#.= = : n n n n n n ; = = O.[.                                              ",
"                                                Y.. ] V.} ^ . . . . . . ~ } N.] . K.                                            ",
"                                        2.2.A.G.G.Y @.-.e q q W W ~ W e q q =.@.Y f.h.f.                                        ",
"                                      U.. . X H r.v.r.L @ = [ m.V.V.m.} 9 X H r.v.4.l X . .                                     ",
"                                    ..o.R.z.p.z.a.e.Q.|.; 9 M.V.V.V.N.N.9 - {.Q.e.a.l.p.z.7.k X.oX                              ",
"                                    t Z !.E.b.z.i.s.P.U.i e V.V.V.V.V.N.W 0 Y.P.s.0.p.b.E.!.Z : XX                              ",
"                                    0 Z !.!.|.: X.OX@.+ m.V.V.V.V.V.V.V.V.m.* O.OXA . j.!.!.h < XX                              ",
"                                    F.d.*.*.*.k.A.F.<.-.) [ V.V.V.V.V.V.} { -.<.F.;.! b *.k   S.                                ",
"                                      Y.. . =     y C.^.d Q N.V.N.V.N.V./ f J.D.y     ; . .                                     ",
"                                        ^._.      y C./.}.L.p p p p Q p H.}./.D.y     `.                                        ",
"                                                  0 1.J..X'.+.X.X.Q X.+.U..XJ.B.t                                               ",
"                                                  . y X.^.].OX/.~.~./.OX X^.O.s . C.                                            ",
"                                                  . < d 1.3.3.T. X X).3.B.1.d t . C.                                            ",
"                                                  o = y d s . L.OXOXI.. y d y ; . Z.                                            ",
"                                                    ' X y P a.I s s I p.U y O  .'.                                              ",
"                                                    ` X u &.c.m . . u c.&.m . ..                                                ",
"                                                    6 o 6.y.g.v . . 2 g.y.w.@ ..                                                ",
"                                                        7 N G ,.A.S.,.G N N d.D.                                                ",
"                                                        t X .       Y.. . ;                                                     ",
"                                                                                                                                ",
"                                                                                                                                ",
"                                                                                                                                ",
"                                                                                                                                ",
"                                                                                                                                ",
"                                                                                                                                ",
"                                                                                                                                "
};
