/* XPM */
static char *_c66f5ff9c6f4d968f737845028b1399kBegIknwIbxjmLoi[] = {
/* columns rows colors chars-per-pixel */
"64 64 221 2 ",
"   c None",
".  c #0F0B07",
"X  c #2E160A",
"o  c #3A2616",
"O  c #401C0B",
"+  c #7D1711",
"@  c #691C12",
"#  c #482C18",
"$  c #532F15",
"%  c #5D2812",
"&  c #4C331C",
"*  c #47311C",
"=  c #54331A",
"-  c #5B351C",
";  c #593719",
":  c #5A290B",
">  c #77291C",
",  c #6B3F1C",
"<  c #63371A",
"1  c #713A17",
"2  c #6A2B18",
"3  c #473724",
"4  c #5C3C22",
"5  c #543922",
"6  c #743D22",
"7  c #6D3425",
"8  c #73421C",
"9  c #63401E",
"0  c #5B4228",
"q  c #5C4936",
"w  c #654323",
"e  c #6C4524",
"r  c #63432B",
"t  c #6C4629",
"y  c #6C4828",
"u  c #7C4C24",
"i  c #784C29",
"p  c #754B25",
"a  c #7B512B",
"s  c #695438",
"d  c #7D5432",
"f  c #785738",
"g  c #654930",
"h  c #7A5842",
"j  c #6D5A45",
"k  c #7E644B",
"l  c #7F6459",
"z  c #7E756D",
"x  c #8B1912",
"c  c #811912",
"v  c #951D15",
"b  c #9A1D16",
"n  c #981710",
"m  c #91150F",
"M  c #A91D15",
"N  c #A21D18",
"B  c #9B2519",
"V  c #88340F",
"C  c #A5211C",
"Z  c #B42219",
"A  c #BD261C",
"S  c #923C30",
"D  c #A82821",
"F  c #B22625",
"G  c #B32C2B",
"H  c #B22824",
"J  c #A63B36",
"K  c #BD372C",
"L  c #C4291E",
"P  c #CC2C22",
"I  c #C52B24",
"U  c #D42B25",
"Y  c #D42626",
"T  c #CB362D",
"R  c #824C26",
"E  c #8F4D24",
"W  c #83532A",
"Q  c #89542A",
"!  c #94532A",
"~  c #864732",
"^  c #8D5A35",
"/  c #875A38",
"(  c #945A32",
")  c #9A5D34",
"_  c #905632",
"`  c #92472F",
"'  c #B84826",
"]  c #A5593C",
"[  c #BC493F",
"{  c #83623D",
"}  c #8C603A",
"|  c #96623A",
" . c #A5653D",
".. c #B6603E",
"X. c #D27039",
"o. c #AA3D75",
"O. c #95574E",
"+. c #AE5244",
"@. c #836543",
"#. c #8C6543",
"$. c #8C694B",
"%. c #956A45",
"&. c #936B4C",
"*. c #9A6A47",
"=. c #856C56",
"-. c #90745B",
";. c #9C7452",
":. c #926C54",
">. c #A56B4A",
",. c #AA744B",
"<. c #BA774B",
"1. c #A27552",
"2. c #AB7651",
"3. c #AE7954",
"4. c #A67B58",
"5. c #B37D53",
"6. c #B97D55",
"7. c #B06852",
"8. c #9F4D77",
"9. c #917963",
"0. c #B86567",
"q. c #C27A73",
"w. c #BB855C",
"e. c #B88256",
"r. c #AF855A",
"t. c #A1A355",
"y. c #9D8062",
"u. c #B68660",
"i. c #B9966A",
"p. c #AB8E76",
"a. c #BB9271",
"s. c #AB886C",
"d. c #C58A5D",
"f. c #C88D62",
"g. c #C59267",
"h. c #D49B6D",
"j. c #D49868",
"k. c #C39C7B",
"l. c #C69B75",
"z. c #D89C72",
"x. c #CDA17A",
"c. c #DEA47B",
"v. c #D2A378",
"b. c #C8C464",
"n. c #6379AE",
"m. c #8F6FEA",
"M. c #AF74EE",
"N. c #33959D",
"B. c #7E9291",
"V. c #6EAD84",
"C. c #6588AF",
"Z. c #79A7BF",
"A. c #3895D7",
"S. c #358AD7",
"D. c #2C8FEA",
"F. c #2F8FE6",
"G. c #2D90EB",
"H. c #3C94E6",
"J. c #3393EA",
"K. c #3A96EA",
"L. c #3B98E9",
"P. c #2C90EC",
"I. c #448FD0",
"U. c #4398D8",
"Y. c #439BCB",
"T. c #669ED5",
"R. c #7889DB",
"E. c #5FB3D4",
"W. c #73ADDA",
"Q. c #449BE8",
"!. c #569FE3",
"~. c #4FADE5",
"^. c #5BA4E5",
"/. c #54A4EE",
"(. c #5AA6EB",
"). c #55A5F0",
"_. c #64A8E6",
"`. c #77B1E3",
"'. c #74B5F1",
"]. c #70AEE8",
"[. c #9E9188",
"{. c #BD8B85",
"}. c #BBA088",
"|. c #BC9AA5",
" X c #96A8BE",
".X c #B5AFAB",
"XX c #DEA883",
"oX c #C8A59B",
"OX c #CAA990",
"+X c #CCB6AD",
"@X c #CCB9B6",
"#X c #D4C2B4",
"$X c #8CB7DC",
"%X c #9BBCDB",
"&X c #87BBE9",
"*X c #A7C3DB",
"=X c #B5C6D5",
"-X c #95C0E2",
";X c #97C8F5",
":X c #ABD2F6",
">X c #B1D6F7",
",X c #B8D9F8",
"<X c #B0D0E4",
"1X c #D3CAC7",
"2X c #D5D0CD",
"3X c #DDDAD4",
"4X c #D7D5D3",
"5X c #CDCECF",
"6X c #ECDED3",
"7X c #E6E3DF",
"8X c #C2DEF8",
"9X c #D8EAFA",
"0X c #D1E3EE",
"qX c #EBEBE6",
"wX c #EDF4FD",
"eX c #E1FEFF",
"rX c #E3F0FC",
"tX c #F1F7FD",
"yX c #F5FDFE",
"uX c #FEFEFE",
"iX c #F7F4F3",
/* pixels */
"                                                                                                                                ",
"                                                                                                                                ",
"                                                                                                                                ",
"                                                                                                                                ",
"                                                                                                                                ",
"                                                                                                                                ",
"                                                                                                                                ",
"                                                                                                                                ",
"                                                                                                                                ",
"                                                                                                                                ",
"                                                                                                                                ",
"                                                                                                                                ",
"                                                                                                                                ",
"                                                                                                                                ",
"                                                                                                                                ",
"                                                                                                                                ",
"                                                                                                                                ",
"                                                                                                                                ",
"                                                                                                                                ",
"                                                                                                                                ",
"                                                                                                                                ",
"                                                                                                                                ",
"                                                                                                                                ",
"                                                                                                                                ",
"                                                                                                                                ",
"                                                                                                                                ",
"                                                                                                                                ",
"                                                            0.                                                                  ",
"                                                          G |.7X<X(.J.J._.                                                      ",
"                                                        G F 3X0XK.G.G.D.G.D.W.                                                  ",
"                                                      G F F 3X$XG.G.W.$XP.P.K.                                                  ",
"                                                    J F F F 3X].D.J./.^.$X$X%X4X                                                ",
"                                                    B D D M 2X%X`.^.%X=X^.G.D.%X=X                                              ",
"                                                    b b N N 1X^.G.G.D.D.G.G.D.*X4X                                              ",
"                                                    v v b b oX1X%X!.H.H.L.T. X@X@X                                              ",
"                                                  O.x x x m {.+XoXq.[ T I I I P P U                                             ",
"                                                  O.c + c c +.J C Z A L I P U U U Y U [                                         ",
"                                                  :.> S +.+.x n M Z A L P P U U Y Y Y U T                                       ",
"                                                    l OXl.:.7 N M Z A L P P P U T S                                             ",
"                                                    -.k.d e $ % B Z A L P I D u -.h                                             ",
"                                                  f.s.l.^ 4 . X : ..' B @ X $ a $.k ,.                                          ",
"                                                  X.k.l.e.>.p 1 <.j.<.: O O 4 a $.( '                                           ",
"                                                  X.x.v.j.d.5.g.j.c.<.R 1 8 a ^ *.!  .                                          ",
"                                                  i.k.v.h.XXXXz.j.c.<.( ) | ( | ;.V ^                                           ",
"                                                    a.k.h.h.h.f.h.XX6._ !  . .| %.E                                             ",
"                                                      i.g.d.<.g.4.w.*._ R ) | %.&.                                              ",
"                                                      y.r.w.w.r.f 5 # 2 R _ ^ $.=.                                              ",
"                                                      -.y.;.k %.#.t 4 # # , / k                                                 ",
"                                                      =.-.k e d ~ > 2 - # 4 f 9.                                                ",
"                                                      -.k { | ,.7.] ` 8 ; w s                                                   ",
"                                                      4.j j k %.0 o & 9 ; 4 0                                                   ",
"                                                      w.f q f $.%.d e 9 & 3 d B.                                                ",
"                                                  yX6Xw.,.q s @./ f a ; * w 4.                                                  ",
"                                            Q.>XuXuX#Xw.e.1.q 3 3 * 3 o ; W ;.wX                                                ",
"                                          W.W.yXuXuX}.e.e.2.%.0 * * ; y u W &.uXeX&X                                            ",
"                                  C.G.D.F.F.;XuXuXuXoXe.,.5.2.#.g e p a a u p.uXyX/.G.).L.                                      ",
"                          E.U.    D.D.D.D.D.8XuXuXuX+X5.3.2.e.3.f i a W u 8 #XyXwXG.G.G.D.J.                                    ",
"                      T.F.G.G.Y.J.D.D.D.D.D.rXuXuXyX1X} ,.>.1.;.%.d a u , f uXuX:XD.D.D.D.D.D.K.                                ",
"                      eX(.G.G.G.D.D.D.P.D.G.tXuXuXuXqX4 *.*.#.{ f t e < $ 1XuXuX/.D.S.S.Z.A.D.D.D.P.                            ",
"                    yXuXtXL.D.D.D.D.D.G.G.G.tXuXuXuXuXz Q } d y 4 4 = $ [.uXuXwXG.G.N.V. X~.~.D.G.P.D.                          ",
"                  uXuXuXuX;XD.D.D.D.G.G.D.D.tXuXuXuXuXqXr W a w - = $ * iXuXuX>XD.G.o.n.F.G.p.U.G.G.G.D.                        ",
"                uXuXuXuXuX9XD.D.D.D.D.D.D.G.uXuXuXuXuXyX3X{ a 8 < < e .XuXuXuX;XG.G.8.C.G.H.i.A.G.P.D.D.                        ",
"                uXuXuXuXyX9XD.D.D.G.D.D.D.K.yXuXuXuXuXtXrXiXoXu Q 4.qXuXuX8X,X>XD.D.i.b.M.R.t.D.G.G.D.D.>X                      ",
"                uXuXuXuXuXrXD.D.D.D.J.G.D.D.'.'.'.(.Q.F.D./.:X4Xk.7XrX;X(.G.J.).D.D.S.I.m.H.A.G.G.G.G.K.yXuX                    "
};
