/* XPM */
static char *_dceec6e9a174a59cdc1f45c3594776dmG3Jhad7qzTotfcp[] = {
/* columns rows colors chars-per-pixel */
"64 64 206 2 ",
"   c None",
".  c #0C0B0A",
"X  c #0A0606",
"o  c #150E0C",
"O  c #190D0B",
"+  c #14110E",
"@  c #1C110E",
"#  c #141313",
"$  c #1D1614",
"%  c #1B1B1B",
"&  c #1E1718",
"*  c #251712",
"=  c #231A15",
"-  c #2C1C16",
";  c #221E1C",
":  c #2B1917",
">  c #341D16",
",  c #371D18",
"<  c #24211F",
"1  c #2D2119",
"2  c #33241D",
"3  c #3D241B",
"4  c #37291E",
"5  c #261F22",
"6  c #1A2629",
"7  c #182F37",
"8  c #242423",
"9  c #2B2624",
"0  c #2B2B2C",
"q  c #262829",
"w  c #342625",
"e  c #3B2C24",
"r  c #322A29",
"t  c #322729",
"y  c #2D2F31",
"u  c #2E3132",
"i  c #343333",
"p  c #3B3C3C",
"a  c #3C3635",
"s  c #43261D",
"d  c #43251B",
"f  c #452B22",
"g  c #4C2B21",
"h  c #442F28",
"j  c #512E23",
"k  c #4A3225",
"l  c #47352C",
"z  c #553126",
"x  c #593226",
"c  c #5C3529",
"v  c #593C2D",
"b  c #433934",
"n  c #4C3C37",
"m  c #583838",
"M  c #62372A",
"N  c #65392C",
"B  c #6B3C2E",
"V  c #722E35",
"C  c #6D3E30",
"Z  c #6A3A39",
"A  c #703C33",
"S  c #4E4239",
"D  c #5A4538",
"F  c #56402F",
"G  c #664A3A",
"H  c #744032",
"J  c #7C4535",
"K  c #7D4A3C",
"L  c #77523D",
"P  c #263D44",
"I  c #1F4A58",
"U  c #3B464A",
"Y  c #354D57",
"T  c #3B545C",
"R  c #2A464E",
"E  c #265767",
"W  c #365A66",
"Q  c #2E6373",
"!  c #376675",
"~  c #3B606B",
"^  c #444444",
"/  c #4D4C4D",
"(  c #484747",
")  c #554C46",
"_  c #5C524A",
"`  c #5A5047",
"'  c #5D5D5D",
"]  c #575453",
"[  c #4A5555",
"{  c #6B4844",
"}  c #784746",
"|  c #795C4C",
" . c #7B5B45",
".. c #725C56",
"X. c #67534B",
"o. c #69635D",
"O. c #746559",
"+. c #7B604D",
"@. c #565A61",
"#. c #435D66",
"$. c #476C7A",
"%. c #596A75",
"&. c #4C7076",
"*. c #666565",
"=. c #696969",
"-. c #73696A",
";. c #7C7876",
":. c #7B7B7B",
">. c #787572",
",. c #68707C",
"<. c #8A3339",
"1. c #804737",
"2. c #814838",
"3. c #9D3B42",
"4. c #80404B",
"5. c #8A534A",
"6. c #935A4E",
"7. c #8C5752",
"8. c #B15058",
"9. c #836249",
"0. c #986958",
"q. c #9B7358",
"w. c #916C52",
"e. c #A7765C",
"r. c #B07C5F",
"t. c #A06757",
"y. c #887668",
"u. c #987D6D",
"i. c #867B74",
"p. c #9D7877",
"a. c #A57866",
"s. c #B27B62",
"d. c #C55B65",
"f. c #B3825E",
"g. c #89817A",
"h. c #B48362",
"j. c #BD8D6A",
"k. c #BB8965",
"l. c #A78376",
"z. c #C28D6A",
"x. c #CD946E",
"c. c #C7926D",
"v. c #D19A72",
"b. c #D99870",
"n. c #CE9971",
"m. c #D8A27B",
"M. c #316F82",
"N. c #307185",
"B. c #337C93",
"V. c #487988",
"C. c #6F7882",
"Z. c #35829B",
"A. c #38869F",
"S. c #3A8BA5",
"D. c #7D8288",
"F. c #7F8897",
"G. c #459BB6",
"H. c #4191AB",
"J. c #8E8E8E",
"K. c #838487",
"L. c #949494",
"P. c #9D9B9B",
"I. c #908B8B",
"U. c #A98D88",
"Y. c #AC9485",
"T. c #B39789",
"R. c #AC9C98",
"E. c #BCA18E",
"W. c #AFA09C",
"Q. c #BEA996",
"!. c #8894A6",
"~. c #8F9CB0",
"^. c #9199A5",
"/. c #A8A8A9",
"(. c #BFAEA1",
"). c #C59987",
"_. c #DBAB8B",
"`. c #CCAB9A",
"'. c #CAAB93",
"]. c #DFAF90",
"[. c #D6B39F",
"{. c #E4B799",
"}. c #E3AF8B",
"|. c #D8B5A0",
" X c #C8B9B6",
".X c #EABDA0",
"XX c #E3BEA8",
"oX c #D2C1BA",
"OX c #ECC5AC",
"+X c #ECC1A4",
"@X c #F3C9AE",
"#X c #F6CEB5",
"$X c #F8CFB8",
"%X c #ECD1BB",
"&X c #F3D2BA",
"*X c #F9D2BA",
"=X c #F4D1B7",
"-X c #EFCEB5",
";X c #ACB6C5",
":X c #BDC4CE",
">X c #C8C8C9",
",X c #D3D3D9",
"<X c #F6DCC4",
"1X c #E5DFDD",
"2X c #CCD4E0",
"3X c #E1E0E0",
/* pixels */
"                                                                                                                                ",
"                                                                                                                                ",
"                                                                                                                                ",
"                                                                                                                                ",
"                                                                                                                                ",
"                                                                                                                                ",
"                                                                                                                                ",
"                                                                                                                                ",
"                                                                                                                                ",
"                                                                                                                                ",
"                                                                                                                                ",
"                                                                                                                                ",
"                                                                                                                                ",
"                                                                                                                                ",
"                                                                  q # a     + + .                                               ",
"                                                                  . *       x g - q                                             ",
"                                                                X O s N : z J z > q                                             ",
"                                                      a ; ; % + O x C 1.J J H @ .                                               ",
"                                                    ] g f 3 - d z C J J B B N @ ^                                               ",
"                                                @ @ , N M x g N 1.J J H j j s #                                                 ",
"                                            / w M x N 1.j d c N N B B x O X o . =.                                              ",
"                                          ' h z J H { &.b d g s s s j s j j j s n                                               ",
"                                        J.# z H 2.1.X.B.^ e 3 d d d d j J 2.J C s 0                                             ",
"                                        J.+ N J 2.2.2.K &.! d j M c H J J 2.2.2.g q                                             ",
"                                        J.+ N 2.J J M g p R 3 j x 3 d z B J J 2.z q                                             ",
"                                        :.& C J J M f - 1 1 3 z s o @ 4 s H J 1.z 0                                             ",
"                                      *.l c J J N > h e.r.w.> j M , L q.* d H J H c a                                           ",
"                                      ^ * j B M > F q.}.{._.u.{ z 3 q.].L k 2 B N s @                                           ",
"                                      ^ * g c g * w.}.=X=X=X-Xw.k z l.=Xm.G @ z z s +                                           ",
"                                      ^ F h.v g Z ).@X#X$X$X$XXX|.[.OX$X@Xa.Z s L h.2                                           ",
"                                      ^ G v.k f t.l.Y.T.XX*X$X*X*X*X[.Y.Y.u.6.2 L n.e                                           ",
"                                      ] G j.- 4 v.X.i p E.*X$X$X=X*Xi.i i w.k.* F j.h                                           ",
"                                        >.e . f m.`.C.q Y.<X$X$X$X&XO.r P.`.z.= + S                                             ",
"                                          *.% e s.oX/.r T.*X#X$X#X&Xy.b >X`.0.$ y                                               ",
"                                            ( w }  X XO.`.*X#X$X#X=XY.-.3XU.A r                                                 ",
"                                              J.w T.&X`.OX$X$X$X=X=XXX`.<X  w                                                   ",
"                                                *.i.E.+X#X#X.X.X+X$X@X|.                                                        ",
"                                                1X' F c..XXXb.x.m.$X}.h.1                                                       ",
"                                                ^ W ! &.^ m 5.5.} S [ &.Q Y                                                     ",
"                                              W.e #.! I 6 : 5.6.} $ 7 I V.( b                                                   ",
"                                      ] < < G 0.x.t.m # y ] c.b.h.( 8 & } s.z.7.m % <                                           ",
"                                    >.g.u.5.e.e.t.T.:.% W V...| o.V.P 9 W.l.t.s.0.7.g.i.:.                                      ",
"                                    9 Q.+X_.r.e.p.R.D.P B.G.#.[ ~ G.Q R /.I.p.e.j.}.=Xy.<                                       ",
"                                    9 Q.*X%Xb ) ,X-.P B.B.B.G.G.G.Z.B.N.q L.  b O.<X<Xy.<                                       ",
"                                      o._ ` L.L.=.D.V.Y M.A.S.S.A.Z.Q U C.C.:.  g.` _ ;.                                        ",
"                                      =.i i   >Xi !.^.( ! N.N.N.M.N.W ] ;X,.p     u i                                           ",
"                                                y F.>X  *.q y y u q L.  ;X%.n                                                   ",
"                                                % @.~.2X/.C.%.  ,.K.;X2XF.P y                                                   ",
"                                                . 9 @.~.>X:X        ;X!.^ % <                                                   ",
"                                                . ; p / i @.      / p / u # #                                                   ",
"                                                i.^ ; i D +.:.,.>.+.n 0 % ] J.                                                  ",
"                                                  @.# t q.s.+ . 2 z.| 8 X L.                                                    ",
"                                                  @.3 3.d.8.. X : d.8.V O J.                                                    ",
"                                                    ..V V 4.-.:.-.3.V Z -.                                                      ",
"                                                    /.9 # (     ,Xe % P                                                         ",
"                                                        >X                                                                      ",
"                                                                                                                                ",
"                                                                                                                                ",
"                                                                                                                                ",
"                                                                                                                                ",
"                                                                                                                                ",
"                                                                                                                                ",
"                                                                                                                                ",
"                                                                                                                                "
};
