/* XPM */
static char *aa03fdf29ad74bbedc472693585f96a6cuWtSJ8lcJ3E11Yk[] = {
/* columns rows colors chars-per-pixel */
"64 64 181 2 ",
"   c None",
".  c #020101",
"X  c #0A0705",
"o  c #0E0806",
"O  c #080B0C",
"+  c #100907",
"@  c #140B0A",
"#  c #1A0D0C",
"$  c #1E110E",
"%  c #151516",
"&  c #1A1A1A",
"*  c #1B1515",
"=  c #21130F",
"-  c #271611",
";  c #2E1A14",
":  c #321D16",
">  c #371F18",
",  c #2B2017",
"<  c #3D231B",
"1  c #2A1B25",
"2  c #1E2125",
"3  c #252525",
"4  c #2B2B2B",
"5  c #362526",
"6  c #3D322C",
"7  c #282E33",
"8  c #2E3239",
"9  c #323131",
"0  c #3D3C3D",
"q  c #3B3636",
"w  c #42251C",
"e  c #46281F",
"r  c #48291F",
"t  c #4C2B21",
"y  c #472926",
"u  c #522E23",
"i  c #532125",
"p  c #553125",
"a  c #593326",
"s  c #5D3529",
"d  c #5A3A2B",
"f  c #402838",
"g  c #4F2E3A",
"h  c #463A39",
"j  c #593835",
"k  c #6B2A2F",
"l  c #61372A",
"z  c #62382B",
"x  c #6A3C2E",
"c  c #613432",
"v  c #633D3B",
"b  c #6E3E30",
"n  c #703F31",
"m  c #5B453E",
"M  c #664231",
"N  c #6D4233",
"B  c #734032",
"V  c #7C4536",
"C  c #7C483D",
"Z  c #7B543E",
"A  c #3C3F51",
"S  c #2D3B4B",
"D  c #413F51",
"F  c #503B45",
"G  c #3A4A57",
"H  c #26505D",
"J  c #285364",
"K  c #375C6D",
"L  c #2F6678",
"P  c #434343",
"I  c #4C4C4C",
"U  c #44484B",
"Y  c #5E4840",
"T  c #524C4A",
"R  c #5D514B",
"E  c #595959",
"W  c #6A4842",
"Q  c #794241",
"!  c #784743",
"~  c #6B574E",
"^  c #785647",
"/  c #665E5C",
"(  c #715D57",
")  c #77625A",
"_  c #555A69",
"`  c #58656D",
"'  c #496A77",
"]  c #6A6A6A",
"[  c #626262",
"{  c #797979",
"}  c #757473",
"|  c #7B6E65",
" . c #8D3A3F",
".. c #804737",
"X. c #814838",
"o. c #A63A42",
"O. c #825C44",
"+. c #825A47",
"@. c #9F4653",
"#. c #8F5A55",
"$. c #834B46",
"%. c #BF515F",
"&. c #8B6B58",
"*. c #9D6654",
"=. c #966B5A",
"-. c #92715A",
";. c #93684D",
":. c #A06C59",
">. c #AC745D",
",. c #AB7B5B",
"<. c #A77758",
"1. c #B07C5E",
"2. c #956A62",
"3. c #85746E",
"4. c #977D78",
"5. c #A97F62",
"6. c #B57D61",
"7. c #AE7D71",
"8. c #B07F74",
"9. c #B5676B",
"0. c #D17278",
"q. c #92837F",
"w. c #BE8766",
"e. c #B58361",
"r. c #AC887D",
"t. c #C58E69",
"y. c #C18865",
"u. c #CD966E",
"i. c #CF9770",
"p. c #D09870",
"a. c #D49E78",
"s. c #D5966F",
"d. c #D7A27D",
"f. c #386F81",
"g. c #37768B",
"h. c #357B91",
"j. c #467381",
"k. c #626A80",
"l. c #6D7E95",
"z. c #707987",
"x. c #388096",
"c. c #5C838B",
"v. c #77809B",
"b. c #4595AF",
"n. c #469FBC",
"m. c #7B8DA7",
"M. c #888888",
"N. c #9A918E",
"B. c #BF9B84",
"V. c #929EA1",
"C. c #8094B0",
"Z. c #A4A4A4",
"A. c #BAB8B8",
"S. c #CE9C84",
"D. c #C9A894",
"F. c #C4A492",
"G. c #D2B29D",
"H. c #DCB19E",
"J. c #E0AE8D",
"K. c #E4B494",
"L. c #E0B79B",
"P. c #CEB1A1",
"I. c #DDB9A4",
"U. c #E1BBA7",
"Y. c #EEC2A6",
"T. c #ECC3AA",
"R. c #E0C0A8",
"E. c #F1C6AB",
"W. c #F5CCB4",
"Q. c #F0CFBC",
"!. c #F8D0B8",
"~. c #92A7C5",
"^. c #B3BCC7",
"/. c #A7B8D0",
"(. c #C7C7C7",
"). c #C2D0D4",
"_. c #D7D7D7",
"`. c #F8E0D1",
"'. c #E4E4E4",
"]. c #FCFCFC",
"[. c gray97",
/* pixels */
"                                                                                                                                ",
"                                                                                                                                ",
"                                                                                                                                ",
"                                                                                                                                ",
"                                                                                                                                ",
"                                                                                                                                ",
"                                                                                                                                ",
"                                                                                                                                ",
"                                                                                                                                ",
"                                      4 . . . .     % .                                                                         ",
"                                      4 o w t p T T y ; . 9                                                                     ",
"                                      4 + s x ..- @ s t . . O                                                                   ",
"                                      4 . o w ..n n V n u = . - 3 3 3 3                                                         ",
"                                      E 4 . > V V V V V x < $ + + @ @ @ N.                                                      ",
"                                          . ; l z z ....X.X...r r s z z t w < (                                                 ",
"                                          . @ : : < x n B n n p t p s B x d l W M.                                              ",
"                                          . . . . X a l z z l l d < s X.X.X.X.s . N.].                                          ",
"                                      E q t u l l l r e e r e e e w P j.^ X.X.V l h 0 _.                                        ",
"                                      4 @ x B X.X.V r e e e w w < 6 G g.~ X.X.V B < X A.'.                                      ",
"                                      4 # V ..X.X.X...B s s s e q g.` C C X.X.B w < < * 0                                       ",
"                                      6 : X.X.X.X.X.X.V x x x a j ' / X.X.X.X.B u t r + 4                                       ",
"                                    < a x X.X.X.X.X.X.X.X.X.X.X.V X.X.X.X.V X.X...n l @ 4                                       ",
"                                  3.w s x X.X.X.X.X.X.X.X.X.X.X.X.X.V M < ; ; ; ; r l + 4                                       ",
"                                  3.< a x X.V X.X.X.X.X.X.X.X.X.X.X.B s $ X X X . < l # 4                                       ",
"                                  3.w s z z B X.X.X.X.X.X.X.X.X.X.X.p o O.e.,.;.: t z < m                                       ",
"                                  3.w a l z x V X.X.X.X.X.X.X.X.V B p , e.d.p.-.w t s                                           ",
"                                  3.w a z z z z V X.X.X.X.X.X.X.B w Z p.Y.W.d.,.< < w                                           ",
"                                  3.w s l z z l x B B B X.X.X.X.B w O.K.E.W.p.w.O.N                                             ",
"                                  3.w s z z z z z z z x X.X.....B < &.!.!.E.d.p.i.*.                                            ",
"                                  3.w s z z z z z z z z x x x u z ,.&.R / | L.K.i.*.                                            ",
"                                  q.j d s z z z z z s l l z l e d u.-.q q I T.Y.a.:.                                            ",
"                                      m r z z z z s e r z z l e M u.D.(.q & I.W.W.7.                                            ",
"                                      Y r z z z z z M v p s p M Z u.G._.R 4 R.!.!.8.                                            ",
"                                      R e z l z z B t.<.< < w e.u.u.R.[.q.) T.!.!.8.                                            ",
"                                      P.M.- w l z N t.6.c +.*.t.u.p.H.`.P.F.W.W.!.S.                                            ",
"                                        (.o ; s d N t.6.n >.i.i.p.p.J.W.W.!.!.!.!.                                              ",
"                                          _.} + + = ! $.n 6.i.i.p.p.p.d.E.!.!.H.#.                                              ",
"                                            Z.9 9 9 c c c *.y.w.w.y.e.,.B.D.D.                                                  ",
"                                                    & . . t  .Q Q Q r . . X . P                                                 ",
"                                                    { I . 5 v v W *.m . I ] ]                                                   ",
"                                                        . 1 5 D R i.^ .                                                         ",
"                                                    E 0 1 S J L ' ~ 6 .                                                         ",
"                                                    & @ q G L g.L G 7 O A.                                                      ",
"                                                    & @ f K h.A U b.h.J ).                                                      ",
"                                                  Z.% $ g ` c.F U n.h.J V.(.                                                    ",
"                                                m . % 3 Q >.u.F D n.f.4 + * '.                                                  ",
"                                                G X _ _ g :.i.r.q.K ' z.2 & '.                                                  ",
"                                                F % C.v.f =.i.E.P.4 ` /.8 & '.                                                  ",
"                                                P % C.v.F 8.U.Q.Q._.^.~.7 & '.                                                  ",
"                                                [ 8 l.k.1 7.U.U.U._.^.m.U P '.                                                  ",
"                                                    & X . y Q $.W P 0 4 ^.[.                                                    ",
"                                                    ] U . 5 j 2.2.4 T {                                                         ",
"                                                        . & 4 G.F.. ]                                                           ",
"                                                        . i  .0.9.. ]                                                           ",
"                                                        % k o.%.@.. ]                                                           ",
"                                                          / @ # # . ]                                                           ",
"                                                            h G F 0                                                             ",
"                                                                                                                                ",
"                                                                                                                                ",
"                                                                                                                                ",
"                                                                                                                                ",
"                                                                                                                                ",
"                                                                                                                                ",
"                                                                                                                                "
};
