/* XPM */
static char *_1ed6d90b61c4bf0a65d7bb9407df5058YM3lfFhjLC9ZKXp[] = {
/* columns rows colors chars-per-pixel */
"64 64 205 2 ",
"   c None",
".  c #010001",
"X  c #0B0705",
"o  c #00020F",
"O  c #0C0B0A",
"+  c #0E060A",
"@  c #140C0B",
"#  c #190E0B",
"$  c #1A110D",
"%  c #140E11",
"&  c #161414",
"*  c #1B1615",
"=  c #1C1817",
"-  c #1B1C1C",
";  c #030B16",
":  c #241612",
">  c #2C1A14",
",  c #2B1B1D",
"<  c #221B18",
"1  c #321D16",
"2  c #341C1E",
"3  c #391F18",
"4  c #36211B",
"5  c #3D221B",
"6  c #29211C",
"7  c #120E2C",
"8  c #271B24",
"9  c #311E24",
"0  c #1A2224",
"q  c #242324",
"w  c #2B2B2B",
"e  c #28252A",
"r  c #372728",
"t  c #3B302D",
"y  c #2A2D34",
"u  c #333232",
"i  c #3B3634",
"p  c #383A3A",
"a  c #3F2838",
"s  c #40191D",
"d  c #44271D",
"f  c #47281E",
"g  c #46241A",
"h  c #421F23",
"j  c #462A21",
"k  c #4D2D22",
"l  c #482C2E",
"z  c #522E23",
"x  c #582F2F",
"c  c #48312C",
"v  c #543126",
"b  c #593227",
"n  c #553228",
"m  c #5D352A",
"M  c #543A2C",
"N  c #5D392D",
"B  c #492E34",
"V  c #483838",
"C  c #5A353B",
"Z  c #61372A",
"A  c #64392C",
"S  c #6A3C2E",
"D  c #6D3E31",
"F  c #6B3D3E",
"G  c #713F31",
"H  c #713D3C",
"J  c #5B453C",
"K  c #5C4037",
"L  c #634131",
"P  c #6B4639",
"I  c #754133",
"U  c #7D4536",
"Y  c #7D4939",
"T  c #75463A",
"R  c #78543E",
"E  c #363C48",
"W  c #413142",
"Q  c #4C3542",
"!  c #573944",
"~  c #3C555E",
"^  c #3E484B",
"/  c #315967",
"(  c #2A5769",
")  c #3A606D",
"_  c #356679",
"`  c #4B4B4D",
"'  c #474546",
"]  c #535353",
"[  c #595858",
"{  c #4E5155",
"}  c #644C44",
"|  c #7B4442",
" . c #7D4B45",
".. c #615249",
"X. c #6C554C",
"o. c #7A5942",
"O. c #645956",
"+. c #7A635B",
"@. c #585865",
"#. c #4E5663",
"$. c #41707F",
"%. c #4F6974",
"&. c #696869",
"*. c #796C62",
"=. c #7C736E",
"-. c #666676",
";. c #706C76",
":. c #777676",
">. c #7D7B7B",
",. c #62787D",
"<. c #92393E",
"1. c #804737",
"2. c #804738",
"3. c #824838",
"4. c #814837",
"5. c #AD256B",
"6. c #895648",
"7. c #955C4F",
"8. c #845251",
"9. c #965D50",
"0. c #804744",
"q. c #B85051",
"w. c #8C6248",
"e. c #97654C",
"r. c #976459",
"t. c #AD795C",
"y. c #A57557",
"u. c #B37F5D",
"i. c #B86F59",
"p. c #9A6F6F",
"a. c #976962",
"s. c #996F70",
"d. c #807F7F",
"f. c #9B7171",
"g. c #927F74",
"h. c #84736D",
"j. c #A97470",
"k. c #C55968",
"l. c #94837D",
"z. c #BB8564",
"x. c #B98766",
"c. c #B68775",
"v. c #A5867C",
"b. c #C48D68",
"n. c #CD956D",
"m. c #CC9C7D",
"M. c #D29A71",
"N. c #D59F79",
"B. c #D6A17C",
"V. c #DCA279",
"C. c #336B81",
"Z. c #2F7187",
"A. c #46788A",
"S. c #637387",
"D. c #8A7F80",
"F. c #43859C",
"G. c #6F8388",
"H. c #4193AE",
"J. c #4487A2",
"K. c #848485",
"L. c #8A8989",
"P. c #878788",
"I. c #948682",
"U. c #808C97",
"Y. c #9A9695",
"T. c #BB988B",
"R. c #AA9E9B",
"E. c #ABA09B",
"W. c #B0A29D",
"Q. c #8499B6",
"!. c #8BA0BE",
"~. c #94ACB4",
"^. c #B4BBAF",
"/. c #BFAFB1",
"(. c #B9B7B7",
"). c #CDA183",
"_. c #D4A482",
"`. c #D7AA8C",
"'. c #D3AA95",
"]. c #D2AF98",
"[. c #FFAE9F",
"{. c #EABA9B",
"}. c #E8A59C",
"|. c #D4B5A2",
" X c #DEB8A3",
".X c #CBB6B6",
"XX c #E4BFAA",
"oX c #EABEA0",
"OX c #C6C0B7",
"+X c #DBC3AC",
"@X c #ECC4A8",
"#X c #F2C9AF",
"$X c #EAC9B2",
"%X c #E8C8B2",
"&X c #F4CCB5",
"*X c #F5D4BB",
"=X c #F9D3BB",
"-X c #9BAFC8",
";X c #D4CECC",
":X c #DBD9D9",
">X c #E0D7D1",
",X c #EBE3DE",
"<X c #F1ECEC",
"1X c #F9F3EF",
"2X c #EDE9E9",
/* pixels */
"                                                                                                                                ",
"                                                                                                                                ",
"                                                                                                                                ",
"                                                                                                                                ",
"                                                                                                                                ",
"                                                                                                                                ",
"                                                                                                                                ",
"                                                                                                                                ",
"                                                                                                                                ",
"                                                                                                                                ",
"                                                                . .     w & O O                                                 ",
"                                                              . . .     . . . .                                                 ",
"                                                          . O X 1 Z : 4 D D z .                                                 ",
"                                                  q p ` &.u X 1 z G z m U k + .                                                 ",
"                                                =.< $ # @ # > m I 4.U U I > % o                                                 ",
"                                          R.} ..K n b k 4 v I U U 3.D S A : u                                                   ",
"                                      :X>.X.A A L I b k z A I I G G 5 > 1 + p                                                   ",
"                                      (.= n 3.3.Y Y f f Z Z m m Z b # X + + i                                                   ",
"                                    &.t D I 3.3.O.$.c 5 f f f f g f m S A b c 7                                                 ",
"                                  (.i : D U 2.3.O.$.^ i 5 g f f f z U 3.U U b *                                                 ",
"                                P.= 1 d g Z 2.U 4.Y $._ g z A Z I 4.1.1.1.3.D <                                                 ",
"                                L.* j b A U 3.3.4.U X.O.A I I I U 1.U 3.1.3.I j 5.                                              ",
"                                L.= k S A S S S I I 1.4.4.4.4.1.2.1.4.1.4.4.U S n                                               ",
"                                L.* z z @ @ # # 3 S U Y 4.U 1.1.1.3.1.1.U 4.U A n                                               ",
"                                Y.r z z : M R R K 4 L 4.1.1.1.4.3.3.U 2.1.I D A n J                                             ",
"                                R.J A b 5 e.n.V.R > S 4.U 1.1.1.3.U 1.U U S Z A n J                                             ",
"                                  ;XX.d g e.B.@Xm.y.L z 1.1.1.1.1.2.2.U S A Z A n J                                             ",
"                                  2X+.n P y.B.&XoXB.L g 1.1.1.1.U I I I Z Z Z A n J                                             ",
"                                    s.6.M.M.B.@X$X+XP f Y Y U 1.I Z Z Z Z Z Z A b J [.                                          ",
"                                    s.8.n.`.'.l.*.+.w.w.b A S I A A Z Z Z Z Z A z J                                             ",
"                                  <Xs.7._.@X|.p p [ x.z.d z Z Z m m Z Z Z A Z N } h.                                            ",
"                                  <Xs.r.#X=X].r &.OXm.y.5 k Z L f 3 b A Z Z N k I.                                              ",
"                                  <Xf.9.&X=X|.J I.,X_.z.w.L z k I w.L Z A A m k v.                                              ",
"                                  <Xf.a.&X*X X+.W.,X`.M.n.Y k 3 6.n.T m A m N J i.                                              ",
"                                  1X`.m.*X=X&X X%X*XB.n.n.b.t.H e.n.T m N > i                                                   ",
"                                    $X'.'.XX=X=X#X{.B.n.n.B.b.0.e.t.N d f V  .                                                  ",
"                                      >X8.T.$X$X`.b.n.n.n.n.z.| H F 6 & -                                                       ",
"                                        .Xl.....J K 6.w.7.9.3.j , l D.j.q.                                                      ",
"                                          Y.' ] w @ F 6.F } x % q [                                                             ",
"                                              :X>.6 y.x.Q B l % :.                                                              ",
"                                                P.- X.+.) / E 8 ' :.                                                            ",
"                                                L.0 p ~ Z.Z.( W 8 w .X                                                          ",
"                                                ~._ J.Z.E ) C.E , w (.                                                          ",
"                                                G./ H.J.B %.,.! q - L..X                                                        ",
"                                              u - p F.F.Q y.b.0.l - o ]                                                         ",
"                                              e ` U.~ #.T.).u.C @.S.- ]                                                         ",
"                                              o @.-X&.h.$X{.c.B -.Q.e ]                                                         ",
"                                              . ; -X:X>X=X>X|.Q -.!.y [                                                         ",
"                                                  o K.I.j.c.a.8 y #.P.^.                                                        ",
"                                                  . & V 0.| x % - `                                                             ",
"                                                    . V XX+.w @ ;.                                                              ",
"                                                    . c }.9.l & d.                                                              ",
"                                                    . 2 k.q.<.2 ;.                                                              ",
"                                                    . @ h h B {                                                                 ",
"                                                      . 8 u '                                                                   ",
"                                                                                                                                ",
"                                                                                                                                ",
"                                                                                                                                ",
"                                                                                                                                ",
"                                                                                                                                ",
"                                                                                                                                ",
"                                                                                                                                ",
"                                                                                                                                ",
"                                                                                                                                "
};
