/* XPM */
static char *ef83f27b0d5f4cc0ee4233d2e42dda60Xcd2BKtIZDiY9ldR[] = {
/* columns rows colors chars-per-pixel */
"64 64 216 2 ",
"   c None",
".  c #191716",
"X  c #1B1B16",
"o  c #1D1B1A",
"O  c #171B14",
"+  c #211E1A",
"@  c #1F211A",
"#  c #172915",
"$  c #1D3B19",
"%  c #23211D",
"&  c #282C1E",
"*  c #24391E",
"=  c #2A2822",
"-  c #322E28",
";  c #273A22",
":  c #35332C",
">  c #3A362E",
",  c #3A3731",
"<  c #790404",
"1  c #4F300C",
"2  c #712813",
"3  c #1D5417",
"4  c #2F5617",
"5  c #17670F",
"6  c #166612",
"7  c #196612",
"8  c #166A12",
"9  c #186C12",
"0  c #1C691A",
"q  c #167515",
"w  c #197315",
"e  c #167916",
"r  c #197B16",
"t  c #1C751A",
"y  c #167E1A",
"u  c #197C1A",
"i  c #23681B",
"p  c #366315",
"a  c #237818",
"s  c #357D1D",
"d  c #234D24",
"f  c #2A4728",
"g  c #1E7E22",
"h  c #237A23",
"j  c #327629",
"k  c #464917",
"l  c #594519",
"z  c #505818",
"x  c #6F421A",
"c  c #4D6319",
"v  c #464239",
"b  c #567A2B",
"n  c #4D4942",
"m  c #534C43",
"M  c #595349",
"N  c #635C54",
"B  c #68645B",
"V  c #726B5E",
"C  c #787367",
"Z  c #79736C",
"A  c #8A0407",
"S  c #990205",
"D  c #921213",
"F  c #921712",
"G  c #A80306",
"H  c #B7020C",
"J  c #A81213",
"K  c #B6181E",
"L  c #A4211A",
"P  c #B62E2D",
"I  c #8B2F1E",
"U  c #C0040F",
"Y  c #C53137",
"T  c #915032",
"R  c #9C472C",
"E  c #827D44",
"W  c #817E75",
"Q  c #827B6E",
"!  c #B36050",
"~  c #D16867",
"^  c #1C8517",
"/  c #14841B",
"(  c #1C851A",
")  c #158B1B",
"_  c #1B8B1C",
"`  c #168917",
"'  c #12941D",
"]  c #21841C",
"[  c #368713",
"{  c #148D21",
"}  c #1D8D21",
"|  c #178620",
" . c #169223",
".. c #1C9323",
"X. c #1A9A2B",
"o. c #199827",
"O. c #179829",
"+. c #238725",
"@. c #21962A",
"#. c #2C9835",
"$. c #33973B",
"%. c #328634",
"&. c #18A52D",
"*. c #16AD32",
"=. c #1BA832",
"-. c #18B138",
";. c #28A439",
":. c #31B23F",
">. c #74AA18",
",. c #4BB43A",
"<. c #618F22",
"1. c #7FC339",
"2. c #399743",
"3. c #3A8842",
"4. c #38A948",
"5. c #3AB34B",
"6. c #3BB551",
"7. c #529751",
"8. c #4C8E4C",
"9. c #799359",
"0. c #45A550",
"q. c #53AA5C",
"w. c #4BBC5C",
"e. c #45B855",
"r. c #55B75D",
"t. c #44A04F",
"y. c #61A250",
"u. c #739663",
"i. c #58B763",
"p. c #66B86C",
"a. c #6EBD73",
"s. c #6FB56E",
"d. c #4AC15A",
"f. c #57C263",
"g. c #69C56D",
"h. c #7CCC7B",
"j. c #75C877",
"k. c #65C270",
"l. c #ACB411",
"z. c #92BF24",
"x. c #D5BB0A",
"c. c #F3CD03",
"v. c #F2D10C",
"b. c #ECD32E",
"n. c #8C867B",
"m. c #949273",
"M. c #9D9B6F",
"N. c #C88E7D",
"B. c #82CF7D",
"V. c #87C741",
"C. c #7ED481",
"Z. c #938E82",
"A. c #989489",
"S. c #A49F95",
"D. c #A59D8E",
"F. c #8BBD86",
"G. c #ACA698",
"H. c #B3B19D",
"J. c #BCB6A6",
"K. c #B2ADA2",
"L. c #C0BBA7",
"P. c #C2BCAB",
"I. c #C4BEB5",
"U. c #87C785",
"Y. c #98C88D",
"T. c #88D285",
"R. c #94D48D",
"E. c #9AD68F",
"W. c #96C990",
"Q. c #99D794",
"!. c #A5CA95",
"~. c #A4D49D",
"^. c #A4D99A",
"/. c #A8D9A5",
"(. c #B2D5A7",
"). c #BDDEB5",
"_. c #B7DDB2",
"`. c #B1CDA3",
"'. c #BCE3B6",
"]. c #C6C1AD",
"[. c #C8C3AF",
"{. c #CBC5B3",
"}. c #CAC5BA",
"|. c #C9C6B7",
" X c #D0CAB7",
".X c #D2CDBB",
"XX c #D6D1BD",
"oX c #D8D3BF",
"OX c #C6DBBA",
"+X c #C0E0B6",
"@X c #F2F3B1",
"#X c #D4CFC2",
"$X c #D6D1C2",
"%X c #DAD5C4",
"&X c #DCD6C9",
"*X c #DED8CB",
"=X c #DBD7C7",
"-X c #CCC8C2",
";X c #E1DBCD",
":X c #E4DED1",
">X c #D0ECCC",
",X c #DDF1D4",
"<X c #D2E7CB",
"1X c #E6E1D4",
"2X c #E8E2D6",
"3X c #EBE5DA",
"4X c #EDEADE",
"5X c #E6E8D9",
"6X c #E5F3DB",
"7X c #EEECE1",
"8X c #F1EEE2",
"9X c #EBF5E3",
"0X c #EBF4EC",
"qX c #F1F6EC",
"wX c #F4F9EC",
"eX c #F8FAF4",
/* pixels */
"                                                                                                                                ",
"                                                                                                                                ",
"                                                                                                                                ",
"                                                                                                                                ",
"                                                                                                                                ",
"                                                                                                                                ",
"                                                                                                                                ",
"                                                                                                                                ",
"                                                        '.^.^.^././.(.                                                          ",
"                                                ).Q.T.h.h.j.h.B.B.T.R.R.Q.Q./.                                                  ",
"                                          <X~.U.j.g.g.f.d.d.d.d.d.f.g.C.R.R.Q.R.E.~.                                            ",
"                                      5X~.C.p.i.e.5.-.-.*.*.*.-.5.d.d.d.6.f.C.^.Q.R.R.^.                                        ",
"                                  eX).C.p.e.5.,.1.V.d.*.*.*.*.*.6.,X6XwX9X>X/.T.T.^.E.R.R.                                      ",
"                                qX~.a.i.6.;.z.v.c.v.@X,.&.&.*.*.f.,X6X6X9XwXwXwX9X'.Q.E.B.T.~.                                  ",
"                              0XY.i.e.4.O.>.c.c.c.c.b.,.&.&.=.=.6.'.>X6X9XqXeXwXwX0X9X).T.h.h.W.                                ",
"                            0XY.m.9.;. .&.l.c.b.c.c.l.&.&.&.@.<.9.y.;.5.g./.6XwXeXwX9X9XT.r.g.j.W.                              ",
"                          eX!.! H T ' ' ' >.c.b.x.>._  .o.o.I H Y ~ 3.X.=.X.;.j.>XwXeX,X;.;.6.i.j.R.                            ",
"                        eX(.m.K U x ' ' ) ` a [ ] ' ' ..' c G G S S z o.O.X.O.X.X.k.,XU.X.X.X.4.r.s.~.                          ",
"                        >Xs.u.J H z _ ) ` ` ` ) ) _ _ _ } F G A A 1 +.{ { .. . . .o.$.X. .O.O.X.4.r.a.+X                        ",
"                      wXW.q.7.P G +.` ` ^ ^ ) ( _ _ _ ( c S A < 1 t / { { { { ) { ) { { { { { { ..4.p.U.                        ",
"                      -Xs.4.+.T F ( ` ^ ] ^ ^ ^ ( ] ( ^ x D 2 4 y ` / / ) ( / / / / / ) / ) ) { { @.0.p./.                      ",
"                      F.7.2._ [ z ` ( ^ ^ ^ ^ ^ ( a ] ] 2 k t u y r r r r / / y y y e / y / / | | | $.q.U.9X                    ",
"                    $Xu.t.@._ +.+.( ( ^ ` _ _ ^ ^ ^ ] ^ a ( u u y r r r r a j r e e e e e e y y g | | 4.a._.                    ",
"                    Y I 2.} } .._ _ ^ ] +.a ] _ ^ ^ ^ ] u y y y r e q a l P ~ N.4 q q q q q q q e y g #.q.Y.eX                  ",
"                    K J %.) _ _ _ +.3 # . o @ $ i ( ( y ^ r r r u r i I H G G G 2 9 9 8 w 9 w q q r y a t.s.6X                  ",
"                    Y G b } ....+.# X o o % % = o * h ( r ^ r r t p D G S S A A 2 9 9 9 9 8 8 q w q q t $.q.OX                  ",
"                  `.N.R c @...} # X o % + % % + % o $ t r r r w p L J J D F F 2 4 5 5 5 8 8 9 8 0 9 w t +.8.(.                  ",
"                  W.r.2...} @.$ X X % B K.$X}.Z.: X o * r r r r p 1 l l l f 4 7 6 5 5 5 5 8 5 5 9 9 9 w t t.!.wX                ",
"                  F.q.#.....0 . X + S.:X:X;X:X:X}.v % X 0 q r q q q w 9 9 8 6 9 7 7 5 7 6 6 6 6 9 6 9 w t 7.!.8X                ",
"                  U.q.#.....3 o X C ;X:X:X:X&X$X1XJ.% X * e e q w q w q 9 8 6 6 7 7 7 7 6 6 7 7 6 9 9 0 j s.Y.6X                ",
"                  [.u.8.3.%.@ o X #X:X7X7X7X7X$XXX;XB X O h e r q q q 9 9 8 6 6 7 7 7 0 0 0 0 i j j 8.8.7.u.H.eX                ",
"                  }.C n , = . o : :X7X7X8X8X7X7X[.:XS.X X ; d d d d d d d d f f f f f ; ; * ; ; & = - v M C ].                  ",
"                  I.V m , - o o n *XqX8X8X8X7X8X-X*XJ.X X . . O X . o . o o X X + X + + + + + = = - , v M C P.                  ",
"                  I.Z.M , - o o , :X4X7X8X8XqX8X$X&X}.X X + X X . . o o . o X o X X + X X + + = = - > v N m..X                  ",
"                  8X7X3X:X&Xn o + *X2X7X8X8X7X8X-X:XG.X X : > > : , , , v v n m M N N V V V Q m.D.H.I.XX;X;X3X                  ",
"                  8X7X7X7X7XZ o o n.:X7X8X8X7X:X-X1XN + % :X;X;X*X&X%X$XXXXXXX.X X X X{.{. X X X X.XXX%X;X:X3X                  ",
"                    8X8X4X7XI.% o = I.:X:X&X}.-X:XK.@ o B :X;X;X;X=X;X=X$XoXoXoX.X X.X X X X X X.XXXXX;X;X;X                    ",
"                    8X8X4X4X5XB o o - K.2X2X:X:XG.= + = L.:X:X;X;X;X=XoX%XoXoXoXXXXX.X.X.X.X.X.XXXXXoXXX;X;X                    ",
"                    8X7X4X7X7X#X, o o % n Z C n o % o V 1X:X:X:X;X;X;X%X=X=XoXoXXXXXXXXXXXXXXXXXXXXX;X;X;X:X                    ",
"                      4X4X7X3X7XI., o + o + @ @ % o M *X:X:X;X;X;X;X;X;X=X=XoXoXoXXXXXXXXXXX$X$X%X;X%X;X;X                      ",
"                      4X4X4X3X3X7X-XB % % % % o % Q ;X1X1X:X;X;X;X;X;X%X&X%X%X%X%XoXoXoX$X%X%X&X;X;X;X:X2X                      ",
"                        4X4X3X7X3X7X3X-XA.Z W A.=X1X:X:X1X:X:X;X;X;X;X;X;X=X=X%X%X%X%X;X&X&X&X;X;X;X:X:X                        ",
"                        &X3X3X2X3X3X2X2X:X:X2X:X1X1X;X;X:X;X;X;X;X;X;X%X&X&X&X&X%X%X=X;X&X;X:X:X;X:X2X2X                        ",
"                          :X2X2X2X:X2X:X:X:X:X:X:X1X;X;X;X:X;X;X*X;X;X*X&X;X&X=X;X;X=X;X&X:X:X:X:X:X2X                          ",
"                            :X;X;X;X:X;X:X;X:X;X;X;X;X;X;X*X;X*X*X%X&X*X*X*X&X;X%X;X;X;X;X:X:X:X:X3X3X                          ",
"                              ;X;X;X;X&X;X;X*X;X;X=X%X=X&X&X&X&X*X*X&X&X&X&X;X&X;X;X;X;X:X:X:X:X3X3X                            ",
"                              K.%X%X&X;X;X%X&X$X%X%X%X%X$XoXoX%X%X%X=X%X&X=X&X;X;X;X;X:X:X:X:X7X3X                              ",
"                                J.#XXXXXXXXX$X#XXXXXXX.XXXoX$X%XXX$X%X%X=X=X&X&X%X;X;X;X:X:X:X3X5X                              ",
"                                  J. X.X.X.X.X.X X X.X.X.X XXX.X#X#X#X#X$X%X%X&X&X;X&X;X;X:X*X;X                                ",
"                                      {. X{.{.{.{.[.{. X{. X X X.X.X#X#X$X#X$X$X$X$X&X&X&X#X-XqX                                ",
"                                        ].[.].].].].].].].[.{.{.{.}.#X.X.X#X#X#X#X#X-X.XI.-X                                    ",
"                                            L.L.L.L.].L.].L.].].P.{.{.I..XI.{.|.{.I.I.J.-X                                      ",
"                                                G.L.J.J.J.L.J.J.P.L.L.P.I.J.J.K.A.Z.Z                                           ",
"                                                        Z.G.K.G.G.G.A.n.B                                                       ",
"                                                                                                                                ",
"                                                                                                                                ",
"                                                                                                                                ",
"                                                                                                                                ",
"                                                                                                                                ",
"                                                                                                                                ",
"                                                                                                                                ",
"                                                                                                                                ",
"                                                                                                                                ",
"                                                                                                                                "
};
