/* XPM */
static char *_70f552183af4d96da51fb45a7244436THeRv6FWphWOzSop[] = {
/* columns rows colors chars-per-pixel */
"64 64 228 2 ",
"   c None",
".  c #1A1918",
"X  c #020202",
"o  c #221E1B",
"O  c #201C17",
"+  c #25211C",
"@  c #29231E",
"#  c #2B2214",
"$  c #342B15",
"%  c #3D361B",
"&  c #181E25",
"*  c #1A2229",
"=  c #1C2732",
"-  c #252322",
";  c #2B2621",
":  c #2B2928",
">  c #312C28",
",  c #38322B",
"<  c #383937",
"1  c #283039",
"2  c #443817",
"3  c #4C3E0F",
"4  c #413C37",
"5  c #574C1B",
"6  c #4D411D",
"7  c #66571B",
"8  c #63500E",
"9  c #77651B",
"0  c #77620C",
"q  c #4A453C",
"w  c #65592A",
"e  c #7F723A",
"r  c #2C3947",
"t  c #2F3E4E",
"y  c #2E4459",
"u  c #364859",
"i  c #394245",
"p  c #324D64",
"a  c #37546D",
"s  c #385A76",
"d  c #2E4860",
"f  c #3E617D",
"g  c #494744",
"h  c #4F5552",
"j  c #635B53",
"k  c #675E58",
"l  c #655941",
"z  c #53635D",
"x  c #726852",
"c  c #475666",
"v  c #455E75",
"b  c #566864",
"n  c #46657D",
"m  c #526970",
"M  c #6D766D",
"N  c #8B7717",
"B  c #8E7C29",
"V  c #837970",
"C  c #7E8852",
"Z  c #758871",
"A  c #9E8513",
"S  c #B99C1A",
"D  c #A2850F",
"F  c #BDA216",
"G  c #998438",
"H  c #A69534",
"J  c #B6A834",
"K  c #CDAB07",
"L  c #D4B40B",
"P  c #D9B906",
"I  c #CEAA19",
"U  c #D5B41B",
"Y  c #DDBC1B",
"T  c #D8B816",
"R  c #CFB016",
"E  c #CAA827",
"W  c #D9BB25",
"Q  c #C6B33A",
"!  c #D5B938",
"~  c #CDAF2E",
"^  c #DFC004",
"/  c #DEC314",
"(  c #E2C504",
")  c #E6CA0B",
"_  c #ECD30E",
"`  c #E3C41D",
"'  c #E6CA13",
"]  c #EDD412",
"[  c #EED719",
"{  c #F3DC13",
"}  c #F1D819",
"|  c #F6E115",
" . c #F7E31A",
".. c #F9E61C",
"X. c #D9C431",
"o. c #E4C522",
"O. c #E6CA24",
"+. c #E9CC24",
"@. c #E5C92A",
"#. c #ECD428",
"$. c #ECD634",
"%. c #E3C534",
"&. c #FAEA26",
"*. c #FAEC39",
"=. c #EEE433",
"-. c #8E914D",
";. c #AE9949",
":. c #B5AB48",
">. c #AAAB4C",
",. c #8E946D",
"<. c #98AD74",
"1. c #ACA467",
"2. c #A29571",
"3. c #D4B858",
"4. c #CAB243",
"5. c #CFBB75",
"6. c #D5CB59",
"7. c #E9D14A",
"8. c #FCEF46",
"9. c #FAED5C",
"0. c #FCF159",
"q. c #FDF14B",
"w. c #CFD079",
"e. c #FCF163",
"r. c #FAED76",
"t. c #E1C975",
"y. c #33658E",
"u. c #3B6688",
"i. c #356993",
"p. c #3A6C94",
"a. c #396E9B",
"s. c #356A98",
"d. c #39709E",
"f. c #3C74A3",
"g. c #3C7BAB",
"h. c #3875A3",
"j. c #3C7EB2",
"k. c #476985",
"l. c #567785",
"z. c #44729C",
"x. c #4D7699",
"c. c #4E789D",
"v. c #4A7396",
"b. c #52769A",
"n. c #527A9D",
"m. c #587896",
"M. c #4C6E8F",
"N. c #62788E",
"B. c #427DAB",
"V. c #4A79A2",
"C. c #537DA2",
"Z. c #5B7EA2",
"A. c #407FB3",
"S. c #3D82B5",
"D. c #3D85BA",
"F. c #3C89BD",
"G. c #698692",
"H. c #4882AE",
"J. c #5A84A8",
"K. c #4383B4",
"L. c #4B8CBB",
"P. c #4687B8",
"I. c #588AB4",
"U. c #5691BC",
"Y. c #4F91BF",
"T. c #6587A9",
"R. c #668DB1",
"E. c #6B94B8",
"W. c #7697B6",
"Q. c #7390AC",
"!. c #7AA1B9",
"~. c #3C8CC3",
"^. c #3F90C6",
"/. c #438DC2",
"(. c #4392C5",
"). c #4B95C7",
"_. c #5598C5",
"`. c #6D9BC3",
"'. c #74A6C9",
"]. c #78ADD1",
"[. c #66A1CB",
"{. c #92958A",
"}. c #A49B90",
"|. c #93A88B",
" X c #AEB08F",
".X c #869BB2",
"XX c #84A1BB",
"oX c #96A9BC",
"OX c #8DB1A7",
"+X c #C4B993",
"@X c #C7BEAE",
"#X c #B2C3B5",
"$X c #D0CD82",
"%X c #E8D58D",
"&X c #F5EB8D",
"*X c #CDC4B6",
"=X c #D2C8BA",
"-X c #D4D5B3",
";X c #FCF5A8",
":X c #FDF7B7",
">X c #EFECA8",
",X c #DCE193",
"<X c #8AAAC6",
"1X c #89B6D6",
"2X c #93B9D5",
"3X c #9CB3CB",
"4X c #A8B7C7",
"5X c #9CC2DC",
"6X c #A8C5DC",
"7X c #B5C7D8",
"8X c #B6D1CF",
"9X c #AACAE1",
"0X c #BCD0E2",
"qX c #D9D2C5",
"wX c #DDD6CB",
"eX c #D2D1CE",
"rX c #E1D9CE",
"tX c #E3DDD2",
"yX c #E8DFD8",
"uX c #FDF9CD",
"iX c #FDF9C4",
"pX c #E7E2D7",
"aX c #FEFAD4",
"sX c #FCFADC",
"dX c #C5D7E6",
"fX c #FDFBE9",
"gX c #F1F4F4",
"hX c #DFE6ED",
/* pixels */
"                                                                                                                                ",
"                                                                                                                                ",
"                                                                                                                                ",
"                                                                                                                                ",
"                                                                                                                                ",
"                                                                                                                                ",
"                                                                                                                                ",
"                                                                                                                                ",
"                                                                                                                                ",
"                                                    7X4X5X1X5X5X2X5X5X6X9X0X                                                    ",
"                                              4X<X<X'.'.'.'.'.'.].].1X1X5X5X9X9X0X                                              ",
"                                          4XXXW.E.E.U.I.L.K.H.L.L.)._._._.].5X5X9X0X0X                                          ",
"                                        !.Q.R.J.H.B.H.K.H.L.L.L.Y.Y.U._._._._.].#X-X,X,X>X                                      ",
"                                    oXQ.T.J.H.H.g.g.B.g.S.H.L.L.L.U._._.U.OX$X9.&.&.8.q.0.r.:X                                  ",
"                                  .XT.n.M.v.m f.d.g.g.B.H.H.L.Y.I.U.U.<.7.&.;X:X;Xe.&.*.q.0.e.;X                                ",
"                                Q.N.M.M.y.J >.d.d.d.f.g.S.H.H._.I.<.=.....0.iXuXiXiX;X*.&.*.q.e.;X                              ",
"                              }.N.M.k.u.J ( -.v.d.d.H.d.H.H.P.Z $. .| ..&.:XaXsXuXuXfXaX0.&.*.q.0.;X                            ",
"                            3.N.k.n s J ( ( -.p.p.d.d.H.d.G.Q | |  .|  .9.:XuXuXaXfXfXaX:Xe.&.*.q.e.                            ",
"                          t.~ k.n y.H ^ ^ ( -.i.i.p.a.H.,.{ { { | | | &.&X;X:X:XsXfXsXuXuXuXe...*.8.e.                          ",
"                          4.E n c B L ^ ( ( C y.y.y.G.Q _ ] { { { | | ..*.r.;X:XfXaXaXaXsXiXe.=.6.w.$X;X                        ",
"                        3.E E a z L P ^ ( ^ C p.p.Z O.] ] ] _ { { { { { |  .9.;X:X:X:XsXsX8X[.).).).].5X                        ",
"                        Q I I h F L ^ ^ ( ) -.u.-._ _ ] ] ] ] ] _ { { { | |  .=.&X;XsXhX9X_.).).).).).].0X                      ",
"                      3.E I K S L P ^ ^ ^ ) -.J _ _ _ _ _ ] ] [ ] { { { { { | $.|.6X0X5X).(.^.~.(.(.(.[.5X                      ",
"                      4.I K K L K P ^ ^ ) ) _ | { _ _ _ _ _ ] ] ] _ { { [ [ <.H.L.).].^./.~.~.~.^.^.^.(.].0X                    ",
"                    5.~ I K L P ^ L / ^ ( ' ' ] _ _ _ _ _ _ _ ] ] [ [ [ >.H.H.H.A.A.~./.~.~.~.~.~.~.~./._.6X                    ",
"                    3.W I L P T S A A R ) _ _ _ _ _ _ _ _ _ _ ] ] [ @.Z H.d.d.h.j.j.j.A.D.j.~.~.~.~.~.~.(.2XhX                  ",
"                    ! I K P F 3 O o . o 7 / ) _ _ _ _ _ _ _ ' [ ] J v.a.d.d.d.d.g.j.j.j.j.D.D.F.~.~.~.~./.].dX                  ",
"                    ! W L F $ O O o o o + % R _ _ _ _ _ _ _ ) / Z y.i.i.p.d.d.d.h.g.j.g.j.D.D.D.F.F.~.P.L.[.0X                  ",
"                    4.U L 3 o O : j l > + + 2 / _ ) _ _ ' _ / Z y.y.y.y.i.s.d.d.h.h.g.j.j.j.K.A.S.D.P./.L.[.7X                  ",
"                    Q T D O O j eX-XwX=Xk + + 9 ] ' ' ' ' ~ n y.y.y.y.y.y.i.i.d.s.h.h.j.j.j.j.A.K.D.K.P.L.`.6X                  ",
"                  +X! Y 8 o g rX=X*X*X=X-Xj o @ R ' ' ' J u.y.y.y.y.y.y.y.y.i.i.s.h.h.h.g.j.A.A.A.D.j.).`.1X9X                  ",
"                    :.! $ o }.rXwXwXqX*XwX@X> o N / ' / ' C i.y.y.i.y.y.y.y.i.i.s.s.s.h.h.h.B.A.A.Z.`.`.Q..X=X                  ",
"                    k 4 O ; =XrXtXwXrXwX@XrXk o 2 ' / / / / J f y.y.y.y.y.y.i.i.a.a.V.z.x.M.n n c c g g j V qXgX                ",
"                  }.j 4 # 4 rXyXtXtXrXrX=XrX,.O + 5 7 7 7 7 9 w y i i 1 1 1 : = - - - - - ; ; , , 4 4 h k V +XgX                ",
"                  2.l 4 o 4 yXyXtXtXtXyXqXrX}.O + + @ + @ : + o . o o O o o o o - - - ; ; > > , 4 4 q g w ,.#XgX                ",
"                    %.S $ o @XyXyXyXtXyXqXrX}.@ + + + + + + # O O O o o o o o o - + - ; ; ; , q j b M G.XX<X7X                  ",
"                    t.+.8 $ {.yXhXpXyXpXqXtXV @ @ w 7 7 5 5 5 6 < < < < i i u u c c m l.G.J.R.J.J.I.R.E.`.<XeX                  ",
"                    +X%.N # 4 qXtXtXqX*XtXqX4 o 6 O.O.O.O.` X.G.z.z.z.v.d.v.v.J.c.V.n.C.c.C.C.J.J.T.R.E.W.3XdX                  ",
"                    t.%.U 2 @ k rXtXrXyXrXV ; @ B O.O.+.O.:.l.x.v.v.x.x.H.x.v.v.c.c.c.c.c.C.C.C.J.J.R.E.<X4XhX                  ",
"                    %X7.@.N @ @ g }.@X Xj ; ; @ W O.+.+.@.m.x.v.x.x.x.v.l.x.v.v.v.v.c.c.c.c.n.C.C.R.R.W.XX4X                    ",
"                      t.@.` 0 o - ; ; ; ; ; ; B +.+.+.O.+.X.G.v.x.x.x.x.x.x.x.x.v.v.x.c.b.C.C.J.Z.T.E..X3XeX                    ",
"                      t.%.Y U N o ; ; o @ ; N +.+.+.+.+.O.o.#.Z x.x.m.x.x.x.x.x.x.x.x.x.b.C.n.C.J.T.Q..X4X                      ",
"                        4.W ` o.S 8 $ $ 8 S o.+.O.+.+.+.+.O.+.+.>.G.x.n.b.x.x.x.x.x.x.b.n.n.m.J.R.R.W.<XeX                      ",
"                        3.E U Y Y ` ` +.o.` +.+.+.O.+.[ +.#.+.+.+.+.,.m.b.x.x.x.x.x.c.b.n.n.Z.T.R.Q.XX4X                        ",
"                          E I U W Y ` ` o.O.` +.` #.+.#.+.#.+.+.+.+.+.X.,.m.C.b.b.b.b.C.Z.Z.T.T.Q..XoX                          ",
"                          1.E S b T Y Y ` ` o.Q O.+.` +.O.+.+.+.+.+.+.+.+.O.>.Z b.n.b.Z.Z.Z.Q.Q.W.oX-X                          ",
"                            ;.;.v B U T Y ` ` M Z X.O.+.+.+.+.+.+.+.+.+.+.+.@.+.@.4.<.<.{.{.|. Xt.&X                            ",
"                              x v v H U T T ` M k.n :.O.` O.O.O.+.+.+.+.+.+.+.+.+.+.+.+.#.#.$.7.%X                              ",
"                              X i c c H I U T b n k.k.Z W @.o.o.o.O.+.O.+.+.+.+.+.#.#.#.$.$.7.&X                                ",
"                                  g c p B I I b s s f f n -.o.o.o.o.o.+.+.+.+.+.#.#.#.$.$.8.%X                                  ",
"                                    g h c x F c a a a s s u.m ;.o.` o.+.@.+.+.+.+.#.#.$.7.5.                                    ",
"                                      1 t g l h p p p a p a a s v -.~ W o.o.o.O.+.+.%.4.x                                       ",
"                                          < t u u y y d d d d p d a a b V H J J E B k                                           ",
"                                              1 1 1 r t t t t y y y u u p y = * &                                               ",
"                                                    . * * * * = = = : * * . X                                                   ",
"                                                                                                                                ",
"                                                                                                                                ",
"                                                                                                                                ",
"                                                                                                                                ",
"                                                                                                                                ",
"                                                                                                                                ",
"                                                                                                                                ",
"                                                                                                                                ",
"                                                                                                                                "
};
