/* XPM */
static char *b2af4bfa129c42eae843403a6a5f4fdaYHgJo7zUmFPEEvbw[] = {
/* columns rows colors chars-per-pixel */
"64 64 253 2 ",
"   c #1F3709",
".  c #1D4C05",
"X  c #194A09",
"o  c #1A5306",
"O  c #1D5A04",
"+  c #1C5C09",
"@  c #125813",
"#  c #264C06",
"$  c #314F0C",
"%  c #235406",
"&  c #2D5505",
"*  c #245C04",
"=  c #2B5C05",
"-  c #24550B",
";  c #2D540B",
":  c #255D0B",
">  c #2B5C0A",
",  c #33590B",
"<  c #325D0B",
"1  c #275A12",
"2  c #365A17",
"3  c #1C650A",
"4  c #1C6512",
"5  c #256304",
"6  c #2B6404",
"7  c #256905",
"8  c #2C6B04",
"9  c #236409",
"0  c #2C640A",
"q  c #246A0C",
"w  c #2C6B0A",
"e  c #326504",
"r  c #3A6406",
"t  c #346C04",
"y  c #3A6D05",
"u  c #33650A",
"i  c #3A660C",
"p  c #346C0A",
"a  c #3B6C0A",
"s  c #2D7305",
"d  c #2B7807",
"f  c #25730C",
"g  c #2C720B",
"h  c #347304",
"j  c #3B7305",
"k  c #347A04",
"l  c #3C7B04",
"z  c #34740B",
"x  c #3B740B",
"c  c #357B0B",
"v  c #3C7B0B",
"b  c #246313",
"n  c #2C6414",
"m  c #256B11",
"M  c #2B6A13",
"N  c #296B19",
"B  c #336412",
"V  c #346B12",
"C  c #3B6E12",
"Z  c #38681A",
"A  c #297413",
"S  c #2D7D13",
"D  c #29761B",
"F  c #367312",
"G  c #3C7413",
"H  c #357B12",
"J  c #3B7C12",
"K  c #3A751A",
"L  c #3C791A",
"P  c #396427",
"I  c #377823",
"U  c #426D06",
"Y  c #446908",
"T  c #436C0B",
"R  c #427505",
"E  c #4A7705",
"W  c #437C05",
"Q  c #4A7D05",
"!  c #43740B",
"~  c #4B750B",
"^  c #447C0B",
"/  c #4B7C0B",
"(  c #567808",
")  c #537D09",
"_  c #426C11",
"`  c #476816",
"'  c #516F17",
"]  c #427513",
"[  c #4A7513",
"{  c #437B12",
"}  c #4B7C13",
"|  c #43751D",
" . c #4D741B",
".. c #437C19",
"X. c #4B7C1B",
"o. c #527D11",
"O. c #547B1C",
"+. c #6E771D",
"@. c #4B7A25",
"#. c #567B23",
"$. c #2D830A",
"%. c #368104",
"&. c #3D8304",
"*. c #3B8A05",
"=. c #35810C",
"-. c #3C830B",
";. c #3D8B0B",
":. c #3E920C",
">. c #3C8413",
",. c #3D8A14",
"<. c #398419",
"1. c #2F872C",
"2. c #398722",
"3. c #3B9426",
"4. c #448305",
"5. c #4B8405",
"6. c #458B04",
"7. c #4C8B05",
"8. c #44830B",
"9. c #4B840B",
"0. c #448A0C",
"q. c #4C8B0C",
"w. c #528505",
"e. c #588306",
"r. c #538C05",
"t. c #5A8D05",
"y. c #53840B",
"u. c #59850C",
"i. c #538C0C",
"p. c #5A8C0C",
"a. c #449105",
"s. c #4C9205",
"d. c #479806",
"f. c #4E9B05",
"g. c #45920C",
"h. c #4C920B",
"j. c #4E990B",
"k. c #549304",
"l. c #5B9405",
"z. c #549A03",
"x. c #5C9B05",
"c. c #54930B",
"v. c #5B930B",
"b. c #559A0B",
"n. c #5C9B0B",
"m. c #438312",
"M. c #4C8413",
"N. c #458A14",
"B. c #4C8B12",
"V. c #43831B",
"C. c #4C841C",
"Z. c #448B1B",
"A. c #4C8B1C",
"S. c #548412",
"D. c #5B8513",
"F. c #538B13",
"G. c #5B8D13",
"H. c #54851C",
"J. c #538C1C",
"K. c #5B8C1B",
"L. c #4C9212",
"P. c #4D9A13",
"I. c #44921D",
"U. c #489719",
"Y. c #4C941B",
"T. c #549313",
"R. c #5B9313",
"E. c #559B13",
"W. c #5C9A14",
"Q. c #53941A",
"!. c #5B951B",
"~. c #54981C",
"^. c #5B9B1C",
"/. c #648E04",
"(. c #629505",
"). c #629C05",
"_. c #6A9906",
"`. c #62950C",
"'. c #6B950C",
"]. c #639B0B",
"[. c #6A9D0D",
"{. c #618B13",
"}. c #638D1A",
"|. c #629515",
" X c #639B13",
".X c #6A9C12",
"XX c #64941B",
"oX c #6A951C",
"OX c #639A1B",
"+X c #6B9C1B",
"@X c #769D17",
"#X c #56A207",
"$X c #5BA204",
"%X c #5CA20B",
"&X c #4AA010",
"*X c #5DA214",
"=X c #5AA419",
"-X c #63A404",
";X c #69A305",
":X c #66AA05",
">X c #6BAA04",
",X c #64A30B",
"<X c #6BA20B",
"1X c #63A90B",
"2X c #6BAB0A",
"3X c #73AA04",
"4X c #72A40C",
"5X c #7BA70D",
"6X c #73AD0D",
"7X c #7AAC0C",
"8X c #6AB106",
"9X c #7AB30A",
"0X c #78B60A",
"qX c #64A312",
"wX c #6BA313",
"eX c #63AA13",
"rX c #6AAB10",
"tX c #65A41D",
"yX c #6CA31A",
"uX c #6BAA1B",
"iX c #72A413",
"pX c #79A514",
"aX c #74AC14",
"sX c #7CAA11",
"dX c #74A41B",
"fX c #77AB1B",
"gX c #6AB216",
"hX c #74B216",
"jX c #468828",
"kX c #578626",
"lX c #548B24",
"zX c #588B22",
"xX c #499826",
"cX c #5A9523",
"vX c #5C9C23",
"bX c #569728",
"nX c #598D35",
"mX c #649323",
"MX c #6B9E25",
"NX c #59A525",
"BX c #52A235",
"VX c #6BA523",
"CX c #6BA926",
"ZX c #6AA82D",
"AX c #73AB24",
"SX c #79A82A",
"DX c #79B327",
"FX c #7DC713",
"GX c #81B215",
"HX c #84B72A",
"JX c #81B236",
"KX c #97C420",
"LX c #85B557",
/* pixels */
"* k G 9.k.&.r a.^ sX'./ 9.r.6 E j < H l.).w.) ! E Q h k Q r.(.5.i.W c.K 4.T w.v.p.W k.5.! Q Q w.qXk.F.v u K.y./ W t = D.w.D.H.u ",
"t 8 j y.q.a t l r.).W.Q .XW % ! c b m t 6.F. .t |.* h = h 6.l.r.e.j ^ m M G w.`.u.[ M.j 5.k.R /.k.5Xr.j c.j 7.s z U x B.5.].t y ",
"% F.t R x T.q i.9.W.W 7.! y 8 ^ <.u N 6 d Q C.0 t W i.e R l.W h -X! - u a t.(.x.r./.y R w.l.r.t.`./ q.3X`.E W 4.c..X9.] # > % e ",
"x 8.x ^ X.i T r.u ~ y 5.| x 7.iXm.2 o z 7 p 3.I 5 5.l r t 6 8 k s.E L 0.e E W 5.j a j ~ Q r.q.p.].p..X>Xj.SXM.t / LX+.> 9.] < zX",
"*.4.e x >.C.( q.l.l x.W x _ v.5.0.V u >.2 @.c -.q uXJ &.l l h r w.p.XXG.r.w.y.;XX.9.5.M.y 4.R k.pXkXp.7.x.].M.! 4.I.{ _ G C M.y ",
"=.v ..M.j M.MXy.{ ] 5.h 9 p.c.* - x 6 *.I p 6 %.=Xw X <.h q.o.e.(.R 6 0 c.wXq.7.9.t h e.|.+X7.).i.W qX'.5.x t W Q  X= 0.! v l t ",
"8.j v.p.G.7.a v.h 5.t & j M.4.* j k E.s.K j 5 $.d w G b h cX).h Q y {.v k.7.h m 0 c *X0XW.| ! Q 5.4.W n.p.! ! j u.lXh j -.9.J l ",
"u 6 ,Xr.R.4.0 o.p.c.r.r AXc.4.i.t F >.8 { 9.k l =.N.` 1 R x.x j 4.c.b._.r.B.0.x w g.x.$XB.^ s -.5.k 4.7.l.W.4.-.%.m.i.x M.W.k.! ",
"= z q.x ,.p p ] _.l.q.5.v.! 5.k l l A T.Y.W 7 y z J ].Q.-Xj l.).6X9.k.$X%X2X7.A.7.k.=Xm.>.%X2XT.7.l 8 &.7.r.7.W.aXG.r.x.7.( o./ ",
"c ;XF.8.8.].h.7.8.p.W / p.(.v.l k q q k 2XV.V w <.: 9.x.c.5.&.&.6.k.n.6.$X-Xx.c.j.x.w.i t h 6.q.yXb.s.N.7 b.c.y.t / r.w.M Q (.y.",
"R t M.W W W.0.h.|.{ j x.h r.q.R 4.U.jXi.s.k.U.v Q J k r j 5 h h 6.:Xb.#X6.8.,.;.e 5.p.y v 7.k h.x.B.v 0 %.x.v.k l.F.L Y R R t J ",
"r.W T ! -.b.L l p q.0.! s.n.].x.;Xh.R.c.A.A I.L.I.N.> 6 6.O l 7.j 4.! A.c > & 6 r.s.p ! :X[.l.k.iXW.n.c.-Xk.k 7.&.8 Q 9.t [ 6 i.",
"[.l.N.n.h J.o F C : 8.q.qX'.b.:X2XhXvXE.qX* a.v ,.g =.X.l k 4.y 6 Z.v p e < ~ 4.6Xx.k.s.x.).x.z.n.#Xs.g l h.q.z.G t v.9.Q ).>X(.",
"y.j W.[.u ..!.k.R w 7.w.q.k.4.6.h k.<Xs.;.A.f # U.P.<.p.z 4.q.j 5.F.M.v .X<X_.r.n.l r.7.7.4Xx.d.j.U.j.<.g.0.9.dXa y Q u.t.t.t.w.",
"/  XvX4.;Xv ^ v. XAXi.{ Q * 7.c.i.-X#Xi.] } . t c &Xc.>.S A.g.E ^ g.{ 4.l 7.7.x.]./ t l.4.6X#X3X6.5 0.7.4.&.6.].G l ,XW R R w.i.",
"T..XL.4.7. X>.. v.!.wXuX! q.{.! / k &.&.M.^ H v L.8.z.>.I R w.5.S.9.j 4.l 0.h 7.;X4.W *.).-X$Xf.h 0.6.8.A.C.6.h 6.0.S.E `.`.r.t.",
"i.7.H.q.k B.ZXm.R i VXC 4.6 & j T.W.i.h 0.=Xx v O -.B.Q.L.9.r.C.U h h 5.3 h ! v.4.|.w.).6.d.-.0.4.9.j a.OXZX@.&.9 g >.W 4.].S.4.",
"zXv 7.c r.N.0.r.: ] h 9.8 R B 7 j v q.M.v.b.8.J $.z.uXl.k.c.c.c *.w.7.c x { v 7.C.(.uXt 4.] 0 1 | K : 9.k.s.cX~.^ 5.v./ y.t.t.l.",
"9.6.j z * . : q.Y.k F.Z.* t / W '.H.^ b.wX^ M O 6.eX0.5 O p ! Z j x.6 G :.k.7.q.B.).x q.T.} <.S v z.F.W.h ).aXN.CX[.6.h.q.n.7.p.",
"k e r v c.F K j ^ q M.h k % v s o 6 w q.j N.z N.%.f.B.+ 7 x 5.c.= j g.v.4.4.z.r.;Xw.c.v.7XP.bX;.a.%X6XqX8X1XfX2X2XT.7.x.l.9.W -X",
"r.w.9.R 5.R.: F 7.;.! &.q 6 ;Xq.v 7.z s b.n.Z.J 7.c.-.P k 8.h ).a.k.c.j Q 7.l -X6.8 h s.d.CXU.I >.s.x.z.7.,XeXn.V.l c._.p.rXD.k.",
"Q ! g.|.5.% %.>.k.6 t t m.,.= 6.i.z v v x.Q ~.bX%Xl f ,Xz z &.].N.w.2X4.l.7.l.r.4.k 7.7.$XE.NX=.,.VXtXv.*X*.i.!.AXG.l.6X7X7.f.hX",
"! l p h NXw ;.&.M.z v h ! v 7 5.s.2.x E ) 5.>.z %.%Xx.;.5 g.k .X/ 8.6 r.<X_.i.0.0 t &.z.8X X2.. 9.7.c.s.T.c L.0.z.8XXXc.GX1X0XCX",
"mXF.4.J { k.h.3 f $.0 S !.s &.;Xt W.6.g &.6X4.-.N.%X;.G *.2Xn.7.9.$ > ].'.i.M.j 4.$X;X>X%.xX@.k *.qX].1Xj 6.M.t c.lXB.M.6.k.JXSX",
"M.-.D.+ = t x w *.v 4 O g 8.h f.9.h.6.* 0.^ i.4.c xXs.k.b.q.6.$Xi.q.i.x.y.0   o.7.).x.$XsXj.G k :X7.7.t 7.p.t.9X(.w k x.4Xz.).9X",
"|.4X@.9.v v v g.j <.X o c lXq.q.t ].6Xe ^ v T.t.c.9.-XT.s k z 6 S..XwX).5.! ).7.s.].4.x./ 8.V.M.#X>Xx.;Xn.t.l.Q l h.7.y._.GX).l.",
"4.9 q ].M.^ E ;.n.g.f m *.qXC W R 9.Q.z.q.} N.M.E.! t zXL.x 7 B.N.,X4.k ,Xp.x.0.l.4X5.c.qXh.8 z h &.&.4.x.7.1XB.~.,Xk.l.'.W Q W ",
"G F.u zXq.} h &.M.N.<.<.+ G.q.j k.mX9.).vXV.<.. 4.d.W.bXE.y ;.!.,X-.6 8 :X/ k qXq.n.^ n.! c u v.,Xi.x -Xk z.l.jXW 4.%.n.'.y ].w.",
"8 ] t q.NXNX<.v 4X&.w.i.m.9.-.VXh { ^ V 0 p.>.x 4.T.z.;.7.i.8.f.c 9 8 %XwXq.%.1X].k.[.yXF.G.GXpXdXn.M.r.5.7.$XW.t s.j R k.[.R.yX",
"9.n.P.j.v R jXh = r.7.9 ^ t } J H 3 l k i.c T.: j R 7.C t t r.v > * `.w 2Xy.N.eXf.s.;Xi.v %.uXFX6Xk h v ].6.N.B.s.r.! 8.Q y XXAX",
"DXDXz.t.x 8.X.6.d T.yXy.8.} Y._ ^ -.j.W ^ x M z j 7 7.k.5.x m } B.a r.T.f.k x qX6 t T.lXA.^.3Xk.4.d l w.9.^ x.7 r.5.E ].wXHXc..X",
"} mXq.h 7 X.v l =.b D.5.l S.v.B.} v.a.B.W.B *.v A.q.^ ^.s V L.W K.&.)..Xh ^ m.j * 8.l.5.5.,X9.4.E n.l 7.7.6.6XD O } a ;X7.r.eX.X",
"0 4.5.i.R p Q.p m.H l..X9.,XOXF.n.].E qXvXq.; K CX9.n.v { S 0.l z.5 l J.E.p h n z w.v.SXl 5 -.H l 8 9.<XW  X^.q.- C wX_.).{.7.7.",
"^ { c.Q M.p [.@.u 8 c.j Q j !.cXl c.c.:XSX9.! + z ;.,.j H V.l ! p M.l 6.q.0 W G.E.CXyX].n.r.9.!.Z 8.-.l x.-Xb.t a h ).0XsXx.Q r.",
"v j q.] R 5.Z S.}.J.i.9.Q v.c.j.S t #.9.!.w i J H V p -.^ k.~ h k 7.5.F.b.>.].DXc.x.! 8 6.T.4.c K x j 4.R y.r.7.N.w.r.r.Q y R.l.",
"g c.G c G 5.j 0 9.q.f.B.6 XXr.!.D u i.v / 6.-./ c.E.z e 9.[ 6.c.t * t A.xXgX0X^ >Xk v p 7.i.J w v W k.5X8.B.l 4X/ R 5.G.l.e R.R ",
"H p q.k 5 i.V.4.k.R z.W.X.= GXc.E.8 < W 7.CX*.:.7.z b.t W y 6 C &.8.W C.^ DXn.y.x.x.B.5 k.].v l 9.4.7.h 7.7.-X5.wX+X!.! (.W W gX",
"k.4.z 0.p 7 Q j i.! ].n.OXD.i.e 6.! t 7.K.vXlX* 5 k j c.l G W.q.c.c.h 6 * `.y 8 s.8.u 6 9.n.-.V.W / 6 4.k 7.j ! 7.x.M.a |.m.w r.",
"k.4.k 7 d s.#.T.cXz p.D.T R u./ ^ t.n.7.W.t i.W.8.8.v.:.z g x.p A 6 L.7.x.l.l.~.F r.l c h.;X7.j i 2 F./ 7.!.9.W q.7.k w.T j c.8 ",
"x j H g.N.z X ! V g j 5.a ! &.j e l.r.x 7.i.! ! g.4.8 c.4.G.&XZ m W W h.%.s.q.W.h 5 c.k.j 6.t t c.p 7.x.aXv.9.aXvX&.l 7.W l.5.NX",
"p h 7 x wXv q.l n N %.q.1 / 9.y.4.6.8 t 4.k.a -.C.q.D l *X`.8.H ! j Q.< 5 W l 7.W q.q.>XGXiX5.+Xk.p.p.iXl.7.j F.0.8.G.i.v.l.oXV.",
"7.p.>.w i Q c z N.! jXv } { 8.i.].%.^ ^ w.`.D.c.H x.n.W.HXH 1 jXl n.5.^ 6 4.2Xk.v 7.T.pXt F.6.W v..XfXKXr.k.W ! z q.{ k i.J.t 8.",
"b.h J.w K U.F.6.,X&./ !.5.l M.l 8.R q.5.|.i.R 5.,X,XfXR k.lXl 9.5.5.W.L %.k c. Xj !.r.w._.M.7.0.2XOXHXQ.h s.p.-.c 8.G.e.!.& } c.",
"R.} F.F.t Y.C m.[ E a 8.c.q.y.R gX5.W k.v.5.} ).y.D.} G.0.m.4.j ! i.=Xm.9.wX4.;.! t .Xp.p.ZXN.*Xc.HXC.G 8.7.c.U.c z = 7.5.v T R ",
"J.MXc.`.8.g.Y.cX~.N.v c.L.^ W r.dXMX^ / c.v.x j 4.(.i.|. X).|.% d.k eXqX6 9._.lXf W v.x._.u xXU.BX9.H.f.bX^ >Xq.4.x R t r B , { ",
"b.J.[.r./ W.X.F.h.W.[.I.8 j ).x B.W.4.XXu.j ! W.y `.) l.p.5.m.5 h &.m.m.8.3 z B.B.c.<Xw.7.Q E.&.s.F.v.p.t w.2XK.e S.@.R 9./ jX{ ",
"E.x ! n.W r.K.F.].F.7.^.l z G.wXQ.7 w.] y./ ^ r.i.w.Q t.v.Q .XB.5 n.B.k.w d.qX].T.v.l.q.5.9.z x.k.0X7X>X;XhXaXOXv.J t x G.bXBXF ",
"qXl r.^ q.l.|.! k.! t o.t  X= q.j 0.i u a Q &.^ 7.;Xv.r.] l 9.).4.S./ T b.#X<Xk.5.p.`.|.{.! A.7.x.[.w.p.l.l.q.9.x. Xx q.i.lX>.Z ",
"^ 5.^ 9.r.0Xn.].-.R.z 9.m.{ 4.8.v y e 5.t v v ! v n.`.9.z -.l qXl.9.B. Xi.z W i.0.[.k.r.M.%.=XwXW.4.! c.).t.Q n.uXD.0.i..X{ I n ",
"w.n.0.! t XXp.yXl.G.v 4.l : 9.j e r.5.5.0 v l - S q.<X)...;.k.7.8.rXW.].E.B.T G.G.4.~ s.q.Q s.i..XfX Xq.p.x.c.:XtXV.0.Q t.y.u < ",
".XG.8.k.q 9.< ;.^ ' G.&.9.c ^ T.8.l.+Xi.W.0.s.l n.~ sX].D.5.l x.R 7.i.i |.i.`.<XT.dXw.,.W u / (.w./ p.t [.l.k.7.!.tXA.6 ' w.q.! ",
".X9.i.qXh Q.A.H L.k 5.8.lX0.y.0.5 D.! 6 c n.aXaXy.E / p.).n.8.^ j 5.l.W 8.a i.y.p c.+XW.J.j.z.C y y l.e.5.n.l.k.c.T.c.-.! M.S.5.",
"[ / ^ W.;.p =.q.c.B.^ ! T.6 (.B.R 7.8.`.5.{ > F.j j 7..X@Xa E 4.n./ v.W B.x n.! l k.]..X`.W.9.u < r e.p.5X<X X7.c.cXv.* 0.t x 9.",
"0.a ].q.0.D NXJ .X4.n.q.K - e v.8./ 6.9.^ 9.9.m.[ Y e.r i.~ T.q.] j h 7.n.w.8.l p.v.w.] c.N.N F t r /.D.'.mXx.Q M.# n.9 8.N.u a ",
"8.i.].T.Z.xX~.6.i.7.8.5 1 c.k '.} 7.T.h t a { =.! o.! u E u ^ H.H.p q.q.<Xp.k W j y.7XE c V.1.g 6.0.-X2Xv./ D.nX .` X.C M.mXJ.& ",
"r.W i.AXE.q.L.g v 9.} q.  C  X/ T q.Q i.8.t ^ = h.y t { x 5.0 a M.9.G w ! {.'.p W 0 ).,X~.A.S 5 ^ S.R , p.M.Q.VXO.F k  .! h.jX2 ",
"j l.q.8.+Xv.P.0 F.j qX0.@ h ! > p i `.8.F.q.j t Q 4.F.q.9.W ! a c.o.h ! n.} u ^ 7.i.X.u.x ,.w N.B.M 9. .Y i.H.< 9.y.! 8.2.C i t ",
"7.q.c.9.B.8.q.4.8 T.gXi.G 0.k 9.e.Q / ! ^ ^ 8 0.5./ W h t 4.4.! j x 9.j / 6.v u v.4Xk.W x 3.&.c.B.K - < Y i.! v p W c.L V.9.h ! ",
"y.{ B.G.9.5.B.9.^ l [.tXT.N.G v.R.G.&.v ! p 5.S.F.G a w.v.7.r.k s.n.i.M.< ^ 6.o.! % v G.9.N.gXg.~.kX} u t x.t.U p 9.@.R.{.B.r.' ",
") i.S.r 8.R.L.a S.B.v.G.! v c v.R.E M.l M.= 1Xl v 7 * t G h 8 / 8.R R o.c.G.U } 0 v q.E ! l T.h.^ & h m.).[.R ( | i.nXnXnXH.8.i.",
"9.G.y E 5.8.u.V.8.M.j R } n { x W r D.X.).l  Xy.... * 0 > t M.w l x 8.^ l ^ S.v.& v v.t p j Q.8.>.B.w.U U Y r ( MXw.oX' ` r V t ",
"8.x ~ p.Q 9.r.F.j v.).q.1 f G Z t i.x < ! r.[.v.J.h u B.0.E lXL 9.w.r.j p ; ~ mXe 4.VX0 5.r./ U R a / W $ y e.E w.( 5./.e.w.Q j ",
"T.r a R ! c.r x 8.,X].!.V j e J z >.^ / 4.R r / G i.c.} jXr.<.0 9 v a 8.,.M , V = Q ] ! p 5.T < Q E , a E R ( E ( w.5XGX'.c.k.v ",
"u / = ` ~ 9./ C.6 x a W p > > X.a / t.x q.] 0 Y ] W u.F Y G t i.5.q.N Z F G j j 8.p J 4.< [ C jX}.X.$ ~ U E E p.w.r./ W XX'.|.)."
};
